<svg width="531" height="487" viewBox="0 0 531 487" fill="none" xmlns="http://www.w3.org/2000/svg">
  <path fill-rule="evenodd" clip-rule="evenodd" d="M264.998 397C367.723 397 450.998 313.725 450.998 211C450.998 108.275 367.723 25 264.998 25C162.273 25 78.998 108.275 78.998 211C78.998 313.725 162.273 397 264.998 397ZM264.998 374C355.02 374 427.998 301.022 427.998 211C427.998 120.978 355.02 48 264.998 48C174.977 48 101.998 120.978 101.998 211C101.998 301.022 174.977 374 264.998 374Z" fill="#338BCE" />
  <path d="M264.498 87L239.998 44H288.998L264.498 87Z" fill="#338BCE" />
  <path d="M264.498 335L288.998 378H239.998L264.498 335Z" fill="#338BCE" />
  <path d="M389.998 211.5L432.998 187V236L389.998 211.5Z" fill="#338BCE" />
  <path d="M139.998 211.5L96.998 236V187L139.998 211.5Z" fill="#338BCE" />
  <circle cx="265" cy="211" r="37" fill="#DF5B5B" fill-opacity="0.9" />
  <path d="M306.001 3.98104C292.738 1.36912 279.029 0 265 0C251.324 0 237.951 1.30116 225 3.78645V12.96C237.93 10.3627 251.306 9 265 9C279.048 9 292.761 10.434 306.001 13.1637V3.98104Z" fill="#338BCE" fill-opacity="0.5" />
  <path d="M306.001 418.019C292.738 420.631 279.029 422 265 422C251.324 422 237.951 420.699 225 418.213V409.04C237.93 411.637 251.306 413 265 413C279.048 413 292.761 411.566 306.001 408.836V418.019Z" fill="#338BCE" fill-opacity="0.5" />
  <path d="M57.7866 251.001H66.9602C64.3628 238.071 63 224.695 63 211C63 196.952 64.434 183.239 67.1635 170H57.9808C55.3691 183.263 54 196.971 54 211C54 224.677 55.3012 238.049 57.7866 251.001Z" fill="#338BCE" fill-opacity="0.5" />
  <path d="M472.019 170H462.836C465.565 183.239 466.999 196.952 466.999 211C466.999 224.695 465.637 238.071 463.039 251.001H472.213C474.698 238.049 475.999 224.677 475.999 211C475.999 196.971 474.63 183.263 472.019 170Z" fill="#338BCE" fill-opacity="0.5" />
  <rect x="301.461" y="110.036" width="9.85619" height="18.3982" rx="4.9281" transform="rotate(22.8231 301.461 110.036)" fill="#338BCE" fill-opacity="0.6" />
  <rect x="294.324" y="294.823" width="9.85619" height="18.3982" rx="4.9281" transform="rotate(-22.82 294.324 294.823)" fill="#338BCE" fill-opacity="0.6" />
  <rect x="362.711" y="164.165" width="9.85619" height="18.3982" rx="4.9281" transform="rotate(66.6598 362.711 164.165)" fill="#338BCE" fill-opacity="0.6" />
  <rect x="346.027" y="250.05" width="9.85619" height="18.3982" rx="4.9281" transform="rotate(-66.66 346.027 250.05)" fill="#338BCE" fill-opacity="0.6" />
  <rect width="9.83626" height="18.3916" rx="4.91813" transform="matrix(-0.921376 0.388673 0.387102 0.922037 229.207 110.036)" fill="#338BCE" fill-opacity="0.6" />
  <rect width="9.83626" height="18.3916" rx="4.91813" transform="matrix(-0.921397 -0.388623 -0.387053 0.922058 236.324 294.823)" fill="#338BCE" fill-opacity="0.6" />
  <rect width="9.85251" height="18.3613" rx="4.92626" transform="matrix(-0.395394 0.918512 0.917825 0.396986 168.102 164.165)" fill="#338BCE" fill-opacity="0.6" />
  <rect width="9.85251" height="18.3613" rx="4.92626" transform="matrix(-0.395391 -0.918513 -0.917826 0.396983 184.746 250.05)" fill="#338BCE" fill-opacity="0.6" />
  <path d="M249.42 261.005L202.812 479.278C222.803 483.864 243.619 486.287 265 486.287C286.869 486.287 308.146 483.752 328.555 478.961L280.598 261C275.66 262.487 270.424 263.287 265 263.287C259.584 263.287 254.354 262.489 249.42 261.005Z" fill="#DF5B5B" fill-opacity="0.8" />
  <path d="M316.214 198.305L524.526 118.17C517.453 98.9194 508.116 80.157 496.442 62.2447C484.501 43.9233 470.76 27.4814 455.603 12.9999L299.186 172.188C303.128 175.512 306.657 179.462 309.618 184.006C312.576 188.544 314.763 193.361 316.214 198.305Z" fill="#DF5B5B" fill-opacity="0.8" />
  <path d="M231.949 171.042L74.5218 12.8263C59.7663 27.0709 46.3715 43.1884 34.6985 61.1016C22.759 79.4239 13.2656 98.6339 6.13764 118.348L214.931 197.166C216.381 192.217 218.57 187.394 221.531 182.85C224.488 178.312 228.012 174.366 231.949 171.042Z" fill="#DF5B5B" fill-opacity="0.8" />
</svg>
