<svg width="62" height="57" viewBox="0 0 62 57" fill="none" xmlns="http://www.w3.org/2000/svg">
<path d="M16.0148 10.049C15.7314 7.07085 17.9541 4.44276 20.938 4.22792L34.8425 3.22683C35.9385 3.14792 37.0321 3.40969 37.9736 3.97631L56.2579 14.9803C58.0719 16.072 59.0678 18.1339 58.7951 20.2334L57.6283 29.2178C57.4913 30.2724 57.0419 31.262 56.3379 32.0593L51.9248 37.0569C51.0786 38.0152 49.8996 38.6158 48.627 38.7369L48.4921 38.7497C45.7977 39.0062 43.8214 41.3982 44.0778 44.0926C44.1648 45.0063 43.9934 45.926 43.5833 46.747L41.9612 49.9939C40.878 52.1623 38.468 53.3267 36.0959 52.8278L27.7133 51.0644C25.9981 50.7036 24.57 49.5226 23.8935 47.9056L22.0783 43.5668C21.1774 41.4134 18.9801 40.0967 16.6564 40.3179L11.7915 40.7808C10.1721 40.9349 8.57097 40.3411 7.44374 39.1682L4.14843 35.7395C2.78585 34.3218 2.31455 32.269 2.92229 30.3989L5.6307 22.0647C6.03874 20.8091 6.89824 19.7497 8.04273 19.0915L13.4431 15.9861C15.2544 14.9446 16.29 12.9407 16.0921 10.8607L16.0148 10.049Z" fill="#555555"/>
</svg>
