<svg width="84" height="79" viewBox="0 0 84 79" fill="none" xmlns="http://www.w3.org/2000/svg">
<path d="M3.68452 21.0283C3.45224 17.2946 5.43613 13.7752 8.74288 12.0549L27.6838 2.20098C28.9568 1.5387 30.3638 1.17776 31.797 1.14576L64.869 0.407442C69.0435 0.314248 72.7787 2.99905 74.0385 6.99836L82.5725 34.0901C83.2733 36.3149 83.1292 38.7216 82.1681 40.846L71.27 64.9322C70.1821 67.3364 68.1417 69.1731 65.6439 69.9965L42.2604 77.7045C40.4542 78.2999 38.5108 78.3311 36.6866 77.794L15.788 71.6403C13.5024 70.9673 11.5564 69.4476 10.3433 67.3885L1.50083 52.379C-0.280569 49.3552 -0.24323 45.5877 1.59774 42.6002L3.1364 40.1032C4.16152 38.4396 4.64689 36.4971 4.52541 34.5444L3.68452 21.0283Z" fill="#555555"/>
</svg>
