<svg width="151" height="143" viewBox="0 0 151 143" fill="none" xmlns="http://www.w3.org/2000/svg">
<mask id="mask0" style="mask-type:alpha" maskUnits="userSpaceOnUse" x="0" y="0" width="151" height="143">
<path d="M6.70407 38.3293C6.28224 31.549 9.88494 25.1578 15.8899 22.0338L50.2862 4.13941C52.598 2.93672 55.153 2.28125 57.7557 2.22315L117.813 0.882384C125.394 0.713145 132.177 5.58868 134.465 12.8513L149.963 62.0492C151.235 66.0894 150.974 70.4599 149.228 74.3177L129.437 118.058C127.462 122.424 123.757 125.759 119.221 127.254L76.7568 141.252C73.4769 142.333 69.9476 142.39 66.635 141.414L28.6837 130.239C24.5331 129.017 20.9991 126.258 18.7962 122.518L2.73853 95.2614C-0.496436 89.7702 -0.428629 82.9286 2.91453 77.5033L5.70869 72.9688C7.57029 69.9478 8.45171 66.4203 8.23109 62.8742L6.70407 38.3293Z" fill="#555555"/>
</mask>
<g mask="url(#mask0)">
<path d="M6.55172 38.0556C6.1299 31.2753 9.7326 24.8842 15.7376 21.7601L50.1338 3.86573C52.4456 2.66304 55.0006 2.00757 57.6033 1.94947L117.661 0.608702C125.242 0.439463 132.025 5.315 134.313 12.5776L149.81 61.7755C151.083 65.8157 150.821 70.1862 149.076 74.044L129.285 117.784C127.31 122.15 123.604 125.485 119.068 126.981L76.6045 140.978C73.3245 142.059 69.7953 142.116 66.4826 141.141L28.5313 129.966C24.3807 128.744 20.8468 125.984 18.6439 122.245L2.58619 94.9877C-0.648779 89.4965 -0.580973 82.655 2.76219 77.2296L5.55634 72.6952C7.41795 69.6741 8.29937 66.1467 8.07875 62.6005L6.55172 38.0556Z" fill="#555555"/>
<path d="M153.584 66.9991C153.534 67.5471 153.414 68.0863 153.226 68.6034L152.945 69.3756C151.49 73.3775 146.389 74.542 143.342 71.5679C142.07 70.3269 140.305 69.7296 138.541 69.9437L134.729 70.4066C131.031 70.8555 127.67 72.7726 125.4 75.7264L115.662 88.4034C114.398 90.0485 113.787 92.1026 113.945 94.1712C114.353 99.5135 109.731 103.872 104.422 103.151L103.08 102.969C97.3729 102.194 93.6595 96.5639 95.1934 91.0127L97.6736 82.0371L100.319 74.2133C101.675 70.2049 106.235 68.2892 110.046 70.1267L111.921 71.0304C114.622 72.3326 117.859 71.0481 118.933 68.2481C119.149 67.6835 119.264 67.085 119.272 66.4804L119.284 65.5479C119.364 59.4795 124.621 54.78 130.66 55.379L145.512 56.8523C150.447 57.3419 154.065 61.7193 153.615 66.6583L153.584 66.9991Z" fill="#2D2D2D"/>
</g>
</svg>
