<svg width="370" height="348" viewBox="0 0 370 348" fill="none" xmlns="http://www.w3.org/2000/svg">
<mask id="mask0" style="mask-type:alpha" maskUnits="userSpaceOnUse" x="0" y="0" width="370" height="348">
<path d="M16.0386 92.7461C15.0026 76.0949 23.8502 60.3996 38.5972 52.7276L123.068 8.78253C128.745 5.82898 135.019 4.21927 141.411 4.07658L288.901 0.783926C307.518 0.368309 324.176 12.3417 329.794 30.1773L367.853 150.998C370.979 160.919 370.336 171.652 366.049 181.126L317.447 288.543C312.596 299.265 303.497 307.456 292.357 311.128L188.074 345.504C180.019 348.159 171.352 348.298 163.217 345.902L70.0161 318.459C59.823 315.458 51.1444 308.681 45.7344 299.497L6.29999 232.56C-1.64445 219.075 -1.47793 202.273 6.73221 188.95L13.5941 177.814C18.1658 170.395 20.3304 161.732 19.7886 153.023L16.0386 92.7461Z" fill="#555555"/>
</mask>
<g mask="url(#mask0)">
<path d="M16.5825 92.9725C15.5466 76.3214 24.3941 60.6261 39.1411 52.9541L123.612 9.00897C129.289 6.05542 135.563 4.44571 141.955 4.30302L289.445 1.01037C308.062 0.594749 324.72 12.5681 330.338 30.4037L368.397 151.224C371.523 161.146 370.88 171.879 366.593 181.353L317.991 288.77C313.14 299.492 304.041 307.683 292.901 311.355L188.618 345.73C180.563 348.385 171.896 348.524 163.761 346.129L70.5601 318.686C60.367 315.684 51.6883 308.907 46.2784 299.724L6.84394 232.786C-1.1005 219.301 -0.933982 202.5 7.27615 189.176L14.1381 178.04C18.7098 170.621 20.8744 161.959 20.3326 153.25L16.5825 92.9725Z" fill="#555555"/>
<path d="M128.418 35.4737C131.625 33.4044 135.362 32.3038 139.179 32.3038H140.288C151.972 32.3038 160.861 42.7958 158.94 54.3215C157.231 64.5713 164.114 74.279 174.351 76.0594L199.991 80.5184C204.976 81.3855 209.572 83.7712 213.151 87.3494L214.166 88.3654C221.036 95.2346 222.739 105.729 218.394 114.418C214.571 122.064 206.756 126.894 198.208 126.894H196.523C192.013 126.894 187.585 125.688 183.698 123.401L156.832 107.598C153.273 105.504 150.49 102.311 148.902 98.4995C144.318 87.4983 130.876 83.3543 120.893 89.8646L104.828 100.342C95.5506 106.393 83.1617 104.137 76.6115 95.2052C69.5087 85.5196 72.0317 71.852 82.1243 65.3406L128.418 35.4737Z" fill="#C4C4C4"/>
<path d="M189.66 210.843C189.991 209.533 190.49 208.271 191.145 207.089L192.122 205.323C197.186 196.175 210.007 195.307 216.257 203.691C218.865 207.189 222.919 209.315 227.279 209.473L236.703 209.813C245.844 210.142 254.734 206.782 261.372 200.488L289.858 173.475C293.555 169.97 295.827 165.222 296.237 160.144C297.296 147.028 310.18 138.23 322.782 142.016L325.967 142.973C339.512 147.043 346.36 162.124 340.509 175L331.049 195.82L321.629 213.783C316.803 222.985 305.007 225.882 296.467 219.963L292.266 217.051C286.214 212.856 277.868 214.73 274.19 221.11C273.449 222.396 272.94 223.804 272.689 225.267L272.302 227.524C269.781 242.214 255.225 251.596 240.805 247.825L205.345 238.552C193.562 235.471 186.468 223.465 189.454 211.658L189.66 210.843Z" fill="#C4C4C4"/>
<path d="M376.745 163.153C376.623 164.499 376.327 165.823 375.865 167.093L375.176 168.99C371.604 178.817 359.076 181.677 351.592 174.373C348.47 171.326 344.134 169.859 339.802 170.385L330.441 171.521C321.36 172.624 313.105 177.332 307.532 184.586L283.616 215.718C280.513 219.758 279.011 224.803 279.399 229.883C280.402 243.002 269.051 253.706 256.013 251.935L252.717 251.488C238.702 249.584 229.583 235.759 233.35 222.126L239.441 200.084L245.938 180.87C249.267 171.026 260.465 166.321 269.826 170.834L274.429 173.054C281.063 176.251 289.013 173.097 291.649 166.221C292.181 164.834 292.463 163.364 292.482 161.88L292.512 159.589C292.707 144.687 305.618 133.146 320.45 134.617L356.923 138.235C369.043 139.437 377.926 150.187 376.822 162.316L376.745 163.153Z" fill="#2D2D2D"/>
</g>
</svg>
