<svg width="171" height="150" viewBox="0 0 171 150" fill="none" xmlns="http://www.w3.org/2000/svg">
<mask id="mask0" style="mask-type:alpha" maskUnits="userSpaceOnUse" x="0" y="0" width="171" height="150">
<path d="M46.0721 16.299C46.0721 7.4133 53.3837 0.267949 62.2671 0.472358L103.662 1.42486C106.925 1.49994 110.085 2.58168 112.709 4.52198L163.676 42.2037C168.732 45.9422 171.097 52.319 169.7 58.4502L163.722 84.687C163.02 87.7669 161.413 90.5665 159.107 92.7257L144.652 106.261C141.88 108.856 138.225 110.301 134.428 110.301H134.025C125.987 110.301 119.47 116.817 119.47 124.856C119.47 127.582 118.704 130.253 117.26 132.566L111.551 141.71C107.738 147.817 100.284 150.581 93.4108 148.438L69.1211 140.866C64.1512 139.316 60.2607 135.422 58.7155 130.451L54.5692 117.111C52.5114 110.49 46.3849 105.979 39.4517 105.979H24.937C20.1053 105.979 15.5381 103.772 12.5351 99.9873L3.75631 88.922C0.126337 84.3466 -0.689568 78.1442 1.63363 72.7856L11.987 48.9052C13.5468 45.3075 16.3863 42.4167 19.9556 40.7928L36.7972 33.1302C42.446 30.5602 46.0721 24.9266 46.0721 18.7207V16.299Z" fill="#555555"/>
</mask>
<g mask="url(#mask0)">
<path d="M46.0721 16.299C46.0721 7.4133 53.3837 0.267949 62.2671 0.472358L103.662 1.42486C106.925 1.49994 110.085 2.58168 112.709 4.52198L163.676 42.2037C168.732 45.9422 171.097 52.319 169.7 58.4502L163.722 84.687C163.02 87.7669 161.413 90.5665 159.107 92.7257L144.652 106.261C141.88 108.856 138.225 110.301 134.428 110.301H134.025C125.987 110.301 119.47 116.817 119.47 124.856C119.47 127.582 118.704 130.253 117.26 132.566L111.551 141.71C107.738 147.817 100.284 150.581 93.4108 148.438L69.1211 140.866C64.1512 139.316 60.2607 135.422 58.7155 130.451L54.5692 117.111C52.5114 110.49 46.3849 105.979 39.4517 105.979H24.937C20.1053 105.979 15.5381 103.772 12.5351 99.9873L3.75631 88.922C0.126337 84.3466 -0.689568 78.1442 1.63363 72.7856L11.987 48.9052C13.5468 45.3075 16.3863 42.4167 19.9556 40.7928L36.7972 33.1302C42.446 30.5602 46.0721 24.9266 46.0721 18.7207V16.299Z" fill="#555555"/>
<path d="M112.065 81.8149C113.79 81.8816 115.225 83.1613 115.488 84.8669L116.836 93.6087C117.484 97.8123 119.966 101.511 123.611 103.704L135.593 110.913C136.217 111.227 136.19 112.128 135.548 112.403L129.367 115.052C127.505 115.85 125.342 115.11 124.358 113.34L122.784 110.506C122.353 109.73 121.788 109.036 121.115 108.456L103.524 93.2954C102.069 92.0415 101.259 90.197 101.32 88.2773L101.496 82.7826C101.624 78.77 106.675 77.0832 109.189 80.2139L109.394 80.4698C110.048 81.2839 111.022 81.7746 112.065 81.8149Z" fill="#2D2D2D"/>
</g>
</svg>
