<svg width="58" height="51" viewBox="0 0 58 51" fill="none" xmlns="http://www.w3.org/2000/svg">
<path d="M15.8218 5.71205C15.8218 2.7204 18.2835 0.3147 21.2744 0.383521L35.2111 0.704209C36.3097 0.729487 37.3736 1.09369 38.2571 1.74695L55.4167 14.4336C57.1191 15.6923 57.9152 17.8393 57.4448 19.9035L55.4321 28.7369C55.1958 29.7739 54.6547 30.7165 53.8784 31.4434L49.0116 36.0005C48.0784 36.8743 46.8479 37.3605 45.5694 37.3605H45.434C42.7274 37.3605 40.5334 39.5546 40.5334 42.2611C40.5334 43.1789 40.2757 44.0782 39.7896 44.8567L37.8672 47.9354C36.5834 49.9914 34.0739 50.9223 31.7598 50.2008L23.582 47.6512C21.9087 47.1295 20.5988 45.8185 20.0786 44.1448L18.6826 39.6535C17.9898 37.4244 15.9271 35.9055 13.5929 35.9055H8.70606C7.07932 35.9055 5.54164 35.1626 4.5306 33.8882L1.57494 30.1628C0.352801 28.6223 0.0781017 26.5341 0.860277 24.73L4.34607 16.6899C4.87122 15.4786 5.82723 14.5053 7.02891 13.9586L12.6992 11.3788C14.601 10.5135 15.8218 8.61678 15.8218 6.52737V5.71205Z" fill="#555555"/>
</svg>
