<svg width="370" height="348" viewBox="0 0 370 348" fill="none" xmlns="http://www.w3.org/2000/svg">
<mask id="mask0" style="mask-type:alpha" maskUnits="userSpaceOnUse" x="0" y="0" width="370" height="348">
<path d="M15.5825 92.1991C14.5466 75.5479 23.3941 59.8526 38.1411 52.1806L122.612 8.23553C128.289 5.28198 134.563 3.67227 140.955 3.52958L288.445 0.236929C307.062 -0.178688 323.72 11.7947 329.338 29.6303L367.397 150.451C370.523 160.372 369.88 171.105 365.593 180.579L316.991 287.996C312.14 298.718 303.041 306.909 291.901 310.581L187.618 344.957C179.563 347.612 170.896 347.751 162.761 345.355L69.5601 317.912C59.367 314.911 50.6883 308.134 45.2784 298.951L5.84394 232.013C-2.1005 218.528 -1.93398 201.726 6.27615 188.403L13.1381 177.267C17.7098 169.848 19.8744 161.185 19.3326 152.477L15.5825 92.1991Z" fill="#555555"/>
</mask>
<g mask="url(#mask0)">
<path d="M15.5825 92.1991C14.5466 75.5479 23.3941 59.8526 38.1411 52.1806L122.612 8.23553C128.289 5.28198 134.563 3.67227 140.955 3.52958L288.445 0.236929C307.062 -0.178688 323.72 11.7947 329.338 29.6303L367.397 150.451C370.523 160.372 369.88 171.105 365.593 180.579L316.991 287.996C312.14 298.718 303.041 306.909 291.901 310.581L187.618 344.957C179.563 347.612 170.896 347.751 162.761 345.355L69.5601 317.912C59.367 314.911 50.6883 308.134 45.2784 298.951L5.84394 232.013C-2.1005 218.528 -1.93398 201.726 6.27615 188.403L13.1381 177.267C17.7098 169.848 19.8744 161.185 19.3326 152.477L15.5825 92.1991Z" fill="#555555"/>
<g filter="url(#filter0_dif)">
<path d="M218.87 278.111C215.059 278.325 211.267 277.437 207.948 275.551L206.984 275.003C196.824 269.231 194.279 255.718 201.643 246.646C208.191 238.578 207.003 226.738 198.981 220.132L178.891 203.59C174.984 200.374 172.166 196.029 170.823 191.15L170.441 189.765C167.862 180.399 171.565 170.434 179.635 165.025C186.736 160.265 195.916 159.926 203.349 164.149L204.814 164.981C208.735 167.209 211.99 170.445 214.24 174.353L229.792 201.365C231.853 204.943 232.696 209.094 232.194 213.193C230.745 225.022 240.385 235.266 252.281 234.536L271.424 233.362C282.48 232.684 292.138 240.765 293.421 251.767C294.812 263.697 285.867 274.334 273.875 275.01L218.87 278.111Z" fill="#40DD6C"/>
</g>
<g filter="url(#filter1_dif)">
<path d="M-49.9532 188.486C-50.1872 187.419 -49.7478 186.317 -48.8437 185.703C-47.7026 184.928 -46.1594 185.15 -45.2817 186.213L-35.6949 197.834C-33.6253 200.342 -30.4079 201.605 -27.1844 201.175L-21.3544 200.397C-18.8735 200.066 -16.659 201.973 -16.6181 204.475C-16.5644 207.763 -12.9142 209.706 -10.1569 207.916L-5.06142 204.607C-3.10616 203.337 -1.84746 201.235 -1.65143 198.912L-0.615233 186.633C-0.446124 184.629 0.323294 182.722 1.59256 181.162L12.4303 167.843C13.2138 166.88 13.7601 165.746 14.0251 164.533L20.0537 136.94C21.5049 130.298 31.3331 131.594 31.0126 138.385C30.8824 141.142 32.7994 143.576 35.5105 144.094L38.9726 144.757C40.9915 145.143 43.081 144.872 44.9343 143.983L74.2195 129.941C79.9042 127.215 85.8435 133.178 83.0946 138.852C82.4807 140.119 81.4813 141.159 80.2397 141.822L34.9617 166.022C31.2834 167.988 29.2115 172.03 29.7633 176.164L30.6108 182.514C30.689 183.1 30.8338 183.675 31.0425 184.228L32.3998 187.826C34.239 192.7 29.4557 197.46 24.5903 195.596C24.1091 195.412 23.6534 195.167 23.2343 194.867L15.4986 189.327C13.589 187.959 10.9836 188.112 9.2463 189.692C7.70273 191.097 7.19826 193.314 7.98247 195.248L12.9745 207.559C13.8239 209.654 13.9386 211.974 13.2998 214.143L2.91072 249.407C0.493464 257.612 -10.9673 258.043 -13.9934 250.042C-15.4278 246.25 -14.125 241.967 -10.8218 239.616L-6.078 236.24C-4.37706 235.03 -3.09641 233.313 -2.41799 231.339C-0.511374 225.79 -3.76523 219.787 -9.45942 218.372L-25.595 214.362L-39.5734 210.612C-43.1822 209.644 -45.9501 206.745 -46.7503 203.095L-49.9532 188.486Z" fill="#38EC75"/>
</g>
<g filter="url(#filter2_dif)">
<path d="M153.675 283.711C154.347 282.85 155.477 282.485 156.526 282.79C157.85 283.174 158.665 284.504 158.406 285.858L155.635 300.337C154.986 303.728 156.133 307.215 158.669 309.559L163.711 314.221C165.287 315.678 166.125 317.766 165.991 319.908L165.558 326.871C165.319 330.697 169.841 332.887 172.695 330.326C173.179 329.892 173.558 329.353 173.803 328.75L181.25 310.425C181.915 308.79 183.166 307.462 184.758 306.701L196.641 301.024C202.225 298.356 207.082 305.777 202.403 309.827L200.792 311.221C197.33 314.217 199.824 319.886 204.371 319.358C207.657 318.977 210.28 322.052 209.385 325.237L200.175 358.005C200.104 358.257 200.008 358.5 199.886 358.732C197.994 362.354 192.498 360.81 192.769 356.733L194.22 334.903C194.38 332.493 192.655 330.368 190.263 330.029C188.349 329.758 186.47 330.709 185.554 332.411L179.138 344.335C178.067 346.326 176.353 347.895 174.276 348.786L140.493 363.286C132.633 366.66 124.989 358.11 129.219 350.675C131.224 347.151 135.353 345.422 139.271 346.465L144.897 347.964C146.914 348.501 149.049 348.394 151.003 347.656L154.951 346.166C158.531 344.814 160.531 340.996 159.604 337.284C159.055 335.09 157.551 333.257 155.506 332.292L151.678 330.486C149.785 329.593 148.662 327.603 148.877 325.521C149.264 321.757 145.443 318.977 141.981 320.503L137.805 322.345C129.818 325.867 123.181 315.326 129.81 309.646L140 300.914C140.482 300.5 140.923 300.039 141.314 299.538L153.675 283.711Z" fill="#38EC75"/>
</g>
<g filter="url(#filter3_dif)">
<path d="M95.791 274.602C96.6696 275.252 97.0642 276.371 96.7873 277.428C96.4379 278.762 95.1305 279.611 93.7695 279.388L79.223 277C75.8155 276.441 72.3605 277.679 70.084 280.276L65.5567 285.44C64.1418 287.053 62.0761 287.945 59.9312 287.869L52.9595 287.619C49.1282 287.482 47.059 292.06 49.6935 294.845C50.1405 295.318 50.6893 295.682 51.2983 295.911L69.8141 302.872C71.4661 303.493 72.8266 304.709 73.6291 306.281L79.6176 318.01C82.4314 323.521 75.1412 328.573 70.9696 324.002L69.533 322.428C66.4469 319.047 60.8462 321.689 61.4933 326.221C61.9608 329.496 58.9562 332.198 55.7489 331.387L22.7491 323.045C22.4957 322.981 22.2496 322.891 22.0149 322.776C18.3441 320.98 19.7426 315.445 23.8258 315.609L45.686 316.483C48.0993 316.58 50.1785 314.799 50.4539 312.399C50.6743 310.479 49.6742 308.625 47.9485 307.754L35.8594 301.655C33.8413 300.637 32.2277 298.965 31.2816 296.912L15.8959 263.524C12.3161 255.755 20.6617 247.888 28.2054 251.921C31.7811 253.832 33.6186 257.914 32.6788 261.858L31.329 267.522C30.8451 269.553 31.0089 271.684 31.7975 273.617L33.3917 277.525C34.837 281.068 38.7065 282.966 42.3929 281.942C44.5722 281.336 46.3644 279.784 47.2753 277.713L48.9797 273.84C49.8225 271.924 51.7824 270.749 53.8692 270.908C57.6422 271.196 60.3205 267.303 58.703 263.882L56.752 259.756C53.0207 251.865 63.3826 244.953 69.2354 251.429L78.2335 261.385C78.6598 261.857 79.1321 262.285 79.6434 262.663L95.791 274.602Z" fill="#38EC75"/>
</g>
<g filter="url(#filter4_dif)">
<path d="M184.287 36.1176C180.405 34.5253 175.943 35.5249 173.112 38.6208L145.643 68.6578C145.292 69.0419 144.803 69.2707 144.283 69.2939C142.945 69.3537 141.941 68.085 142.308 66.7966L142.515 66.0665C142.963 64.4925 141.809 62.918 140.173 62.8715L131.053 62.6124C130.198 62.5881 129.766 61.5698 130.344 60.9381C130.482 60.7867 130.664 60.6816 130.864 60.6369L149.007 56.5929C152.355 55.8466 155.087 53.4367 156.245 50.2079L160.78 37.562C161.719 34.9429 161.524 32.0509 160.243 29.5812L158.182 25.6095C156.215 21.8186 152.058 19.6951 147.834 20.3237L134.676 22.2818C134.561 22.2988 134.446 22.3061 134.33 22.3035C132.481 22.263 131.632 19.9833 133.004 18.7428L142.083 10.5336C143.803 8.97856 146.188 8.38946 148.435 8.96493L174.503 15.6434C176.625 16.187 178.509 17.4124 179.867 19.1311L189.717 31.5974C190.742 32.8946 192.072 33.9174 193.589 34.5744L195.659 35.4708C200.925 37.7512 207.025 35.1424 209.014 29.7598L210.055 26.9414C210.287 26.312 210.456 25.6608 210.558 24.9976L213.003 9.11671C213.09 8.55363 213.522 8.10641 214.082 8.00076C214.885 7.84912 215.637 8.4443 215.673 9.26119L216.559 29.0932C216.596 29.9069 216.732 30.713 216.964 31.4936C218.587 36.9401 224.431 39.9272 229.796 38.0528L232.456 37.1235C233.397 36.7949 234.256 36.2696 234.977 35.5825L239.284 31.4793C241.479 29.3881 245.119 30.579 245.653 33.5631C246.011 35.5615 247.875 36.9268 249.888 36.6653L261.831 35.1138C265.074 34.6925 267.864 32.6131 269.195 29.6254L271.573 24.2861C272.591 21.9997 275.376 21.1132 277.529 22.39C280.356 24.0673 283.925 21.9773 283.845 18.6906L283.698 12.6168C283.641 10.2861 282.511 8.11243 280.635 6.72788L270.721 -0.590396C269.103 -1.78477 267.882 -3.43924 267.219 -5.33783L262.903 -17.693C261.69 -21.166 262.481 -25.0247 264.964 -27.7395L267.758 -30.7956C270.721 -34.0353 271.224 -38.8284 268.999 -42.6127L252.061 -71.4205L241.63 -88.0505C240.265 -90.2271 241.03 -93.1048 243.296 -94.3157C245.396 -95.4375 248.006 -94.701 249.21 -92.6472L267.675 -61.1399C269.712 -57.6634 274.865 -58.0826 276.314 -61.8426L276.379 -62.0133C276.874 -63.2966 277.935 -64.2781 279.253 -64.6709C282.265 -65.5684 285.229 -63.1374 284.939 -60.0082L282.235 -30.8313C281.962 -27.8845 284.298 -25.3484 287.257 -25.3785L288.605 -25.3922C292.972 -25.4366 294.88 -19.896 291.413 -17.2416C291.105 -17.0059 290.768 -16.8106 290.41 -16.6605L281.461 -12.9016C279.295 -11.9921 278.059 -9.69336 278.495 -7.38535C278.882 -5.33468 280.506 -3.74267 282.564 -3.39692L295.665 -1.19591C297.894 -0.821402 299.931 0.297307 301.443 1.97779L318.049 20.4377C320.187 22.814 323.332 24.0252 326.512 23.6966L362.216 20.0071C366.655 19.5485 370.86 22.0864 372.523 26.2274L378.574 41.2947C379.386 43.3145 377.626 45.4263 375.493 44.9932C375.007 44.8946 374.558 44.6658 374.192 44.3314L364.327 35.3097C359.29 30.7035 351.22 32.3857 348.443 38.6208L345.393 45.4698C344.375 47.7555 344.362 50.3633 345.357 52.6591L361.251 89.3301C364.214 96.1643 354.555 101.218 350.629 94.8881C347.526 89.8843 339.824 91.8644 339.519 97.7444L337.188 142.683C337.123 143.921 337.29 145.161 337.679 146.338L348.312 178.522C348.738 179.813 348.897 181.177 348.779 182.532L345.715 217.529C345.538 219.547 345.978 221.571 346.977 223.333L352.233 232.601C354.369 236.37 353.837 241.085 350.913 244.282L345.937 249.724C338.815 257.511 326.052 250.39 328.938 240.24L335.396 217.537L340.674 184.047C341.169 180.902 340.138 177.709 337.896 175.448L320.92 158.333C317.271 154.654 319.081 148.397 324.131 147.235C327.338 146.496 329.514 143.512 329.236 140.233L322.725 63.4737C322.389 59.514 317.025 58.5585 315.342 62.1587C313.426 66.2599 307.234 64.3175 308.003 59.8564L310.83 43.4564C310.912 42.9789 310.937 42.4934 310.905 42.0099L310.105 30.0626C309.966 27.9795 309.175 25.9892 307.849 24.3766C304.123 19.8445 297.305 19.4692 293.115 23.577L281.244 35.2172L270.801 45.0826C268.045 47.687 264.052 48.5079 260.491 47.2024L248.618 42.849C247.232 42.3408 245.751 42.1457 244.28 42.2779L209.819 45.3759C208.221 45.5196 206.612 45.2767 205.128 44.6678L184.287 36.1176Z" fill="#38EC75"/>
</g>
</g>
<defs>
<filter id="filter0_dif" x="153.63" y="145.203" width="155.934" height="148.939" filterUnits="userSpaceOnUse" color-interpolation-filters="sRGB">
<feFlood flood-opacity="0" result="BackgroundImageFix"/>
<feColorMatrix in="SourceAlpha" type="matrix" values="0 0 0 0 0 0 0 0 0 0 0 0 0 0 0 0 0 0 127 0" result="hardAlpha"/>
<feOffset/>
<feGaussianBlur stdDeviation="8"/>
<feComposite in2="hardAlpha" operator="out"/>
<feColorMatrix type="matrix" values="0 0 0 0 0.00392157 0 0 0 0 0.839216 0 0 0 0 0.435294 0 0 0 1 0"/>
<feBlend mode="normal" in2="BackgroundImageFix" result="effect1_dropShadow"/>
<feBlend mode="normal" in="SourceGraphic" in2="effect1_dropShadow" result="shape"/>
<feColorMatrix in="SourceAlpha" type="matrix" values="0 0 0 0 0 0 0 0 0 0 0 0 0 0 0 0 0 0 127 0" result="hardAlpha"/>
<feOffset/>
<feGaussianBlur stdDeviation="4"/>
<feComposite in2="hardAlpha" operator="arithmetic" k2="-1" k3="1"/>
<feColorMatrix type="matrix" values="0 0 0 0 0 0 0 0 0 0 0 0 0 0 0 0 0 0 1 0"/>
<feBlend mode="normal" in2="shape" result="effect2_innerShadow"/>
<feGaussianBlur stdDeviation="1" result="effect3_foregroundBlur"/>
</filter>
<filter id="filter1_dif" x="-66.0151" y="113.26" width="165.803" height="158.549" filterUnits="userSpaceOnUse" color-interpolation-filters="sRGB">
<feFlood flood-opacity="0" result="BackgroundImageFix"/>
<feColorMatrix in="SourceAlpha" type="matrix" values="0 0 0 0 0 0 0 0 0 0 0 0 0 0 0 0 0 0 127 0" result="hardAlpha"/>
<feOffset/>
<feGaussianBlur stdDeviation="8"/>
<feComposite in2="hardAlpha" operator="out"/>
<feColorMatrix type="matrix" values="0 0 0 0 0.00392157 0 0 0 0 0.839216 0 0 0 0 0.435294 0 0 0 1 0"/>
<feBlend mode="normal" in2="BackgroundImageFix" result="effect1_dropShadow"/>
<feBlend mode="normal" in="SourceGraphic" in2="effect1_dropShadow" result="shape"/>
<feColorMatrix in="SourceAlpha" type="matrix" values="0 0 0 0 0 0 0 0 0 0 0 0 0 0 0 0 0 0 127 0" result="hardAlpha"/>
<feOffset/>
<feGaussianBlur stdDeviation="4"/>
<feComposite in2="hardAlpha" operator="arithmetic" k2="-1" k3="1"/>
<feColorMatrix type="matrix" values="0 0 0 0 0 0 0 0 0 0 0 0 0 0 0 0 0 0 1 0"/>
<feBlend mode="normal" in2="shape" result="effect2_innerShadow"/>
<feGaussianBlur stdDeviation="1" result="effect3_foregroundBlur"/>
</filter>
<filter id="filter2_dif" x="111.099" y="266.684" width="114.463" height="113.361" filterUnits="userSpaceOnUse" color-interpolation-filters="sRGB">
<feFlood flood-opacity="0" result="BackgroundImageFix"/>
<feColorMatrix in="SourceAlpha" type="matrix" values="0 0 0 0 0 0 0 0 0 0 0 0 0 0 0 0 0 0 127 0" result="hardAlpha"/>
<feOffset/>
<feGaussianBlur stdDeviation="8"/>
<feComposite in2="hardAlpha" operator="out"/>
<feColorMatrix type="matrix" values="0 0 0 0 0.00392157 0 0 0 0 0.839216 0 0 0 0 0.435294 0 0 0 1 0"/>
<feBlend mode="normal" in2="BackgroundImageFix" result="effect1_dropShadow"/>
<feBlend mode="normal" in="SourceGraphic" in2="effect1_dropShadow" result="shape"/>
<feColorMatrix in="SourceAlpha" type="matrix" values="0 0 0 0 0 0 0 0 0 0 0 0 0 0 0 0 0 0 127 0" result="hardAlpha"/>
<feOffset/>
<feGaussianBlur stdDeviation="4"/>
<feComposite in2="hardAlpha" operator="arithmetic" k2="-1" k3="1"/>
<feColorMatrix type="matrix" values="0 0 0 0 0 0 0 0 0 0 0 0 0 0 0 0 0 0 1 0"/>
<feBlend mode="normal" in2="shape" result="effect2_innerShadow"/>
<feGaussianBlur stdDeviation="1" result="effect3_foregroundBlur"/>
</filter>
<filter id="filter3_dif" x="-0.959473" y="232.865" width="113.834" height="114.667" filterUnits="userSpaceOnUse" color-interpolation-filters="sRGB">
<feFlood flood-opacity="0" result="BackgroundImageFix"/>
<feColorMatrix in="SourceAlpha" type="matrix" values="0 0 0 0 0 0 0 0 0 0 0 0 0 0 0 0 0 0 127 0" result="hardAlpha"/>
<feOffset/>
<feGaussianBlur stdDeviation="8"/>
<feComposite in2="hardAlpha" operator="out"/>
<feColorMatrix type="matrix" values="0 0 0 0 0.00392157 0 0 0 0 0.839216 0 0 0 0 0.435294 0 0 0 1 0"/>
<feBlend mode="normal" in2="BackgroundImageFix" result="effect1_dropShadow"/>
<feBlend mode="normal" in="SourceGraphic" in2="effect1_dropShadow" result="shape"/>
<feColorMatrix in="SourceAlpha" type="matrix" values="0 0 0 0 0 0 0 0 0 0 0 0 0 0 0 0 0 0 127 0" result="hardAlpha"/>
<feOffset/>
<feGaussianBlur stdDeviation="4"/>
<feComposite in2="hardAlpha" operator="arithmetic" k2="-1" k3="1"/>
<feColorMatrix type="matrix" values="0 0 0 0 0 0 0 0 0 0 0 0 0 0 0 0 0 0 1 0"/>
<feBlend mode="normal" in2="shape" result="effect2_innerShadow"/>
<feGaussianBlur stdDeviation="1" result="effect3_foregroundBlur"/>
</filter>
<filter id="filter4_dif" x="114.08" y="-110.84" width="280.696" height="379.868" filterUnits="userSpaceOnUse" color-interpolation-filters="sRGB">
<feFlood flood-opacity="0" result="BackgroundImageFix"/>
<feColorMatrix in="SourceAlpha" type="matrix" values="0 0 0 0 0 0 0 0 0 0 0 0 0 0 0 0 0 0 127 0" result="hardAlpha"/>
<feOffset/>
<feGaussianBlur stdDeviation="8"/>
<feComposite in2="hardAlpha" operator="out"/>
<feColorMatrix type="matrix" values="0 0 0 0 0.00392157 0 0 0 0 0.839216 0 0 0 0 0.435294 0 0 0 1 0"/>
<feBlend mode="normal" in2="BackgroundImageFix" result="effect1_dropShadow"/>
<feBlend mode="normal" in="SourceGraphic" in2="effect1_dropShadow" result="shape"/>
<feColorMatrix in="SourceAlpha" type="matrix" values="0 0 0 0 0 0 0 0 0 0 0 0 0 0 0 0 0 0 127 0" result="hardAlpha"/>
<feOffset/>
<feGaussianBlur stdDeviation="4"/>
<feComposite in2="hardAlpha" operator="arithmetic" k2="-1" k3="1"/>
<feColorMatrix type="matrix" values="0 0 0 0 0 0 0 0 0 0 0 0 0 0 0 0 0 0 1 0"/>
<feBlend mode="normal" in2="shape" result="effect2_innerShadow"/>
<feGaussianBlur stdDeviation="1" result="effect3_foregroundBlur"/>
</filter>
</defs>
</svg>
