<svg width="380" height="333" viewBox="0 0 380 333" fill="none" xmlns="http://www.w3.org/2000/svg">
<mask id="mask0" style="mask-type:alpha" maskUnits="userSpaceOnUse" x="0" y="0" width="380" height="333">
<path d="M102.307 35.5604C102.307 15.7037 118.646 -0.263876 138.498 0.192912L231.001 2.32145C238.293 2.48923 245.354 4.90656 251.219 9.24252L365.114 93.449C376.413 101.803 381.697 116.053 378.575 129.755L365.216 188.385C363.648 195.268 360.056 201.524 354.903 206.349L322.601 236.596C316.407 242.396 308.239 245.623 299.754 245.623H298.855C280.89 245.623 266.327 260.186 266.327 278.151C266.327 284.242 264.617 290.211 261.39 295.379L248.631 315.813C240.11 329.46 223.453 335.638 208.094 330.849L153.814 313.927C142.708 310.464 134.014 301.762 130.561 290.653L121.296 260.843C116.697 246.047 103.006 235.966 87.5129 235.966L55.0771 235.966C44.2798 235.966 34.0736 231.035 27.3629 222.577L7.74511 197.849C-0.366717 187.625 -2.19 173.764 3.0016 161.79L26.1381 108.425C29.6238 100.385 35.9692 93.9249 43.9452 90.296L81.5809 73.1727C94.204 67.4295 102.307 54.8402 102.307 40.972L102.307 35.5604Z" fill="#555555"/>
</mask>
<g mask="url(#mask0)">
<path d="M102.225 35.377C102.225 15.5203 118.564 -0.447226 138.416 0.00956198L230.919 2.1381C238.211 2.30588 245.272 4.72321 251.137 9.05917L365.032 93.2657C376.331 101.62 381.615 115.87 378.493 129.571L365.134 188.202C363.566 195.085 359.974 201.341 354.821 206.166L322.519 236.413C316.325 242.213 308.157 245.44 299.672 245.44H298.773C280.808 245.44 266.245 260.003 266.245 277.967C266.245 284.059 264.535 290.028 261.308 295.195L248.549 315.629C240.028 329.276 223.371 335.455 208.012 330.666L153.732 313.743C142.626 310.281 133.932 301.579 130.479 290.47L121.214 260.659C116.615 245.864 102.924 235.783 87.4308 235.783L54.995 235.783C44.1978 235.783 33.9916 230.852 27.2809 222.393L7.66308 197.666C-0.448748 187.441 -2.27203 173.581 2.91957 161.606L26.0561 108.241C29.5417 100.202 35.8871 93.7416 43.8632 90.1126L81.4988 72.9893C94.1219 67.2461 102.225 54.6569 102.225 40.7886L102.225 35.377Z" fill="#555555"/>
<path d="M249.644 5.88388C254.233 2.35421 260.851 3.44629 264.062 8.26311L269.359 16.2087C271.185 18.9486 271.546 22.4122 270.323 25.4696L266.317 35.4853C265.589 37.3043 265.412 39.2969 265.807 41.2157L274.455 83.2183C275.92 90.338 284.252 93.5646 290.131 89.2891L294.142 86.3721C296.016 85.0091 297.358 83.0375 297.94 80.7943L305.628 51.1394C307.427 44.202 315.725 41.3531 321.405 45.7228L327.313 50.2668C330.421 52.6581 331.845 56.6459 330.954 60.4654L321.39 101.452C320.556 105.03 317.827 107.861 314.283 108.828L284.486 116.954C282.307 117.548 279.991 117.388 277.915 116.498L249.374 104.266C246.041 102.838 243.742 99.717 243.367 96.1106L235.71 22.6041C235.35 19.1511 236.807 15.7585 239.559 13.6418L249.644 5.88388Z" fill="#C4C4C4"/>
<path d="M-1.47472 172.043C-0.741633 164.712 5.99013 159.495 13.2719 160.616C18.951 161.489 23.3607 166.026 24.0734 171.727L25.8287 185.769C27.2736 197.329 34.9627 207.155 45.8355 211.337L47.3215 211.908C49.8783 212.892 52.5439 213.565 55.261 213.913L99.0138 219.522C112.019 221.19 123.036 229.913 127.64 242.19L142.959 283.043C145.352 289.424 150.12 294.631 156.265 297.575L213.679 325.087C219.209 327.736 218.047 335.927 211.999 336.935C210.929 337.114 209.831 337.012 208.812 336.639L153.374 316.357C143.531 312.756 135.792 304.977 132.243 295.116L123.163 269.896C122.34 267.607 121.282 265.41 120.007 263.338L114.232 253.954C110.05 247.157 103.692 241.975 96.1927 239.248L94.1735 238.513C90.2985 237.104 86.207 236.384 82.0837 236.384L52.1162 236.384C42.4726 236.384 33.247 232.447 26.5745 225.484L3.81875 201.739C-0.92943 196.784 -3.27039 189.999 -2.58755 183.171L-1.47472 172.043Z" fill="#C4C4C4"/>
<path d="M249.781 181.968C253.635 182.117 256.842 184.976 257.43 188.788L260.442 208.323C261.891 217.717 267.437 225.981 275.581 230.882L302.358 246.993C303.753 247.695 303.692 249.707 302.257 250.322L288.444 256.242C284.284 258.025 279.45 256.372 277.252 252.416L273.734 246.083C272.77 244.348 271.508 242.797 270.004 241.502L230.693 207.623C227.442 204.821 225.632 200.699 225.769 196.409L226.161 184.13C226.448 175.163 237.736 171.394 243.353 178.39L243.812 178.962C245.272 180.781 247.45 181.877 249.781 181.968Z" fill="#2D2D2D"/>
</g>
</svg>
