<svg width="388" height="308" viewBox="0 0 388 308" fill="none" xmlns="http://www.w3.org/2000/svg">
<mask id="mask0" style="mask-type:alpha" maskUnits="userSpaceOnUse" x="0" y="0" width="388" height="308">
<path d="M1.2766 80.74C-1.11975 60.4717 12.0568 41.6259 31.9159 36.9181L128.256 22.475C136.078 20.6206 148.561 24.9628 154.378 30.5124L209.321 85.6297C222.189 97.9078 242.905 84.7616 237.276 67.8899C233.205 55.6879 219.881 -1.75467 232.567 0.372007L295.033 12.4282C303.264 13.808 307.319 22.7068 313.228 28.6009L369.471 84.703C375.798 91.0151 379.842 99.2564 380.961 108.124L387.018 156.128C388.568 168.408 384.373 180.717 375.646 189.494L310.074 255.447C306.351 259.192 301.928 262.165 297.059 264.198C296.57 264.402 296.092 264.633 295.636 264.903L241.461 296.984C241.005 297.254 240.53 297.486 240.038 297.685C230.523 301.529 218.625 307.969 209.751 307.956C208.77 307.954 207.814 307.703 206.905 307.336L111.776 268.89C104.14 265.399 77.4499 253.78 73.2761 246.494L27.2761 150.39C24.5867 145.695 10.4114 118.263 9.77612 112.89L1.2766 80.74Z" fill="#555555"/>
</mask>
<g mask="url(#mask0)">
<path d="M1.28075 80.4257C-1.1156 60.1574 12.061 41.3116 31.9201 36.6038L128.26 22.1606C136.082 20.3062 148.565 24.6484 154.382 30.1981L209.325 85.3154C222.193 97.5934 242.91 84.4473 237.28 67.5756C233.209 55.3736 219.885 -2.069 232.571 0.0576758L295.037 12.1138C303.268 13.4936 307.324 22.3925 313.232 28.2865L369.475 84.3887C375.803 90.7007 379.846 98.9421 380.965 107.81L387.022 155.814C388.572 168.094 384.377 180.402 375.65 189.179L310.078 255.133C306.355 258.878 301.932 261.851 297.063 263.883C296.574 264.087 296.096 264.319 295.64 264.589L241.466 296.67C241.009 296.94 240.534 297.172 240.042 297.37C230.527 301.215 218.629 307.655 209.755 307.642C208.775 307.64 207.818 307.389 206.909 307.022L111.78 268.576C104.144 265.084 77.454 253.465 73.2803 246.18L27.2803 150.076C24.5908 145.381 10.4155 117.949 9.78027 112.576L1.28075 80.4257Z" fill="#555555"/>
<path d="M115.983 26.3862C113.254 25.0219 113.663 21.0069 116.611 20.2208L132.967 15.8592C136.275 14.9772 139.802 15.8988 142.256 18.286L201.346 75.7795C207.715 81.9763 217.788 82.2032 224.43 76.2996C228.399 72.772 230.485 67.5887 230.067 62.2955L225.734 7.41391C225.195 0.582446 230.935 -5.0899 237.76 -4.46948C243.017 -3.99153 247.204 0.135845 247.756 5.38594L250.315 29.6978C250.653 32.908 251.377 36.0658 252.47 39.103L258.988 57.2094C264.877 73.5662 259.344 91.8491 245.375 102.197C228.263 114.872 204.176 111.65 190.997 94.9232L166.116 63.3442C163.661 60.2272 160.757 57.4912 157.499 55.2251L116.393 26.6299C116.263 26.5389 116.126 26.4575 115.983 26.3862Z" fill="#C4C4C4"/>
<path d="M173.729 294.765C170.11 300.303 162.394 301.289 157.499 296.838L150.92 290.857C146.879 287.183 148.897 280.466 154.293 279.627C158.761 278.932 161.171 274 158.975 270.048L144.776 244.502C142.368 240.169 138.12 237.166 133.232 236.339C125.338 235.005 117.641 239.595 115.063 247.176L112.601 254.413C109.975 262.133 100.447 264.855 94.1409 259.686C89.6536 256.008 88.5467 249.593 91.5419 244.624L110.435 213.279C113.589 208.047 118.807 204.392 124.802 203.216C134.69 201.276 144.608 206.417 148.722 215.616L158.404 237.263C160.903 242.853 164.647 247.797 169.349 251.718L224.43 297.657C231.667 303.693 228.446 315.44 219.143 316.941C214.886 317.628 210.621 315.761 208.237 312.168L195.557 293.051C190.622 285.613 179.687 285.65 174.803 293.122L173.729 294.765Z" fill="#C4C4C4"/>
<path d="M348.337 132.213C349.341 131.782 350.507 132.007 351.279 132.779C352.255 133.755 352.327 135.312 351.447 136.374L341.836 147.974C339.761 150.478 339.125 153.875 340.153 156.961L342.013 162.541C342.805 164.915 341.348 167.448 338.898 167.959C335.679 168.629 334.457 172.58 336.733 174.951L340.941 179.334C342.555 181.016 344.857 181.857 347.175 181.613L359.43 180.323C361.43 180.113 363.447 180.51 365.218 181.464L371.369 184.776C376.687 187.639 377.769 194.804 373.536 199.11L362.588 210.246C359.672 213.213 354.673 210.632 355.404 206.536C355.468 206.18 355.577 205.834 355.728 205.506L359.813 196.656C360.797 194.524 360.158 191.993 358.279 190.584C356.609 189.332 354.336 189.253 352.584 190.387L341.431 197.604C339.533 198.832 337.275 199.38 335.026 199.161L298.437 195.584C289.924 194.752 287.347 183.577 294.636 179.101C298.091 176.979 302.543 177.454 305.472 180.256L309.68 184.281C311.189 185.724 313.115 186.659 315.182 186.955C320.99 187.784 326.275 183.46 326.594 177.602L327.5 161L328.556 146.566C328.829 142.84 331.156 139.576 334.59 138.104L348.337 132.213Z" fill="#2D2D2D"/>
</g>
</svg>
