<svg width="84" height="74" viewBox="0 0 84 74" fill="none" xmlns="http://www.w3.org/2000/svg">
<path d="M23.1215 8.45949C23.1215 4.11224 26.6986 0.616444 31.0447 0.716449L51.2966 1.18245C52.893 1.21918 54.4389 1.74841 55.7229 2.69769L80.658 21.1331C83.1318 22.9621 84.2886 26.0819 83.6051 29.0816L80.6803 41.9176C80.337 43.4245 79.5507 44.7941 78.4226 45.8505L71.3505 52.4725C69.9945 53.7423 68.2063 54.4488 66.3486 54.4488H66.1518C62.2188 54.4488 59.0305 57.6371 59.0305 61.57C59.0305 62.9037 58.656 64.2105 57.9497 65.3417L55.1563 69.8154C53.2907 72.8032 49.6441 74.1558 46.2815 73.1074L34.398 69.4025C31.9665 68.6444 30.0631 66.7394 29.3071 64.3072L27.2786 57.7808C26.2718 54.5416 23.2745 52.3345 19.8825 52.3345H12.7813C10.4175 52.3345 8.18303 51.255 6.71384 49.4031L2.4189 43.9896C0.642966 41.7511 0.243792 38.7166 1.38039 36.095L6.4457 24.4117C7.20881 22.6516 8.59802 21.2373 10.3442 20.4428L18.5838 16.694C21.3474 15.4366 23.1215 12.6804 23.1215 9.64425V8.45949Z" fill="#555555"/>
</svg>
