<svg width="380" height="333" viewBox="0 0 380 333" fill="none" xmlns="http://www.w3.org/2000/svg">
<mask id="mask0" style="mask-type:alpha" maskUnits="userSpaceOnUse" x="0" y="0" width="380" height="333">
<path d="M102.307 35.787C102.307 15.9302 118.646 -0.0373137 138.498 0.419474L231.001 2.54801C238.293 2.71579 245.354 5.13313 251.219 9.46908L365.114 93.6756C376.413 102.03 381.697 116.28 378.575 129.981L365.216 188.612C363.648 195.495 360.056 201.751 354.903 206.576L322.601 236.823C316.407 242.623 308.239 245.85 299.754 245.85H298.855C280.89 245.85 266.327 260.413 266.327 278.377C266.327 284.469 264.617 290.438 261.39 295.605L248.631 316.039C240.11 329.686 223.453 335.865 208.094 331.076L153.814 314.153C142.708 310.691 134.014 301.989 130.561 290.88L121.296 261.069C116.697 246.274 103.006 236.193 87.5129 236.193L55.0771 236.193C44.2798 236.193 34.0736 231.262 27.3629 222.803L7.74511 198.076C-0.366717 187.851 -2.19 173.991 3.0016 162.016L26.1381 108.651C29.6238 100.611 35.9692 94.1515 43.9452 90.5226L81.5809 73.3992C94.204 67.656 102.307 55.0668 102.307 41.1986L102.307 35.787Z" fill="#555555"/>
</mask>
<g mask="url(#mask0)">
<path d="M102.225 35.6036C102.225 15.7469 118.564 -0.220663 138.416 0.236124L230.919 2.36466C238.211 2.53244 245.272 4.94978 251.137 9.28573L365.032 93.4922C376.331 101.846 381.615 116.097 378.493 129.798L365.134 188.429C363.566 195.311 359.974 201.568 354.821 206.392L322.519 236.64C316.325 242.439 308.157 245.667 299.672 245.667H298.773C280.808 245.667 266.245 260.23 266.245 278.194C266.245 284.286 264.535 290.255 261.308 295.422L248.549 315.856C240.028 329.503 223.371 335.681 208.012 330.893L153.732 313.97C142.626 310.507 133.932 301.806 130.479 290.697L121.214 260.886C116.615 246.091 102.924 236.009 87.4308 236.009L54.995 236.009C44.1978 236.009 33.9916 231.078 27.2809 222.62L7.66308 197.892C-0.448748 187.668 -2.27203 173.808 2.91957 161.833L26.0561 108.468C29.5417 100.428 35.8871 93.9681 43.8632 90.3392L81.4988 73.2159C94.1219 67.4727 102.225 54.8834 102.225 41.0152L102.225 35.6036Z" fill="#555555"/>
<g filter="url(#filter0_dif)">
<path d="M330.287 210.261C330.772 211.24 330.612 212.416 329.883 213.23C328.963 214.257 327.412 214.416 326.303 213.595L314.193 204.635C311.579 202.701 308.152 202.252 305.128 203.448L299.658 205.612C297.331 206.532 294.721 205.217 294.077 202.798C293.231 199.622 289.219 198.617 286.976 201.021L282.831 205.463C281.24 207.167 280.527 209.511 280.898 211.813L282.858 223.978C283.178 225.964 282.892 228 282.038 229.82L274.739 245.364C274.211 246.487 273.955 247.719 273.99 248.96L274.806 277.193C275.003 283.989 265.152 285.105 263.823 278.437C263.283 275.731 260.835 273.832 258.079 273.984L254.559 274.177C252.507 274.29 250.545 275.058 248.961 276.368L223.935 297.07C219.078 301.088 211.874 296.736 213.171 290.566C213.46 289.189 214.179 287.938 215.223 286.994L253.314 252.573C256.409 249.777 257.443 245.354 255.909 241.475L253.552 235.518C253.335 234.969 253.055 234.446 252.719 233.959L250.533 230.796C247.571 226.511 251.063 220.736 256.234 221.369C256.746 221.432 257.247 221.56 257.726 221.75L266.571 225.257C268.755 226.123 271.246 225.345 272.55 223.392C273.709 221.656 273.662 219.382 272.434 217.695L264.616 206.955C263.286 205.127 262.614 202.903 262.71 200.645L264.272 163.915C264.636 155.369 275.653 152.183 280.522 159.215C282.83 162.549 282.601 167.019 279.963 170.098L276.176 174.521C274.818 176.106 273.989 178.081 273.808 180.161C273.298 186.006 277.906 191.045 283.773 191.043L300.4 191.036L314.87 191.298C318.606 191.366 321.992 193.51 323.65 196.858L330.287 210.261Z" fill="#38EC75"/>
</g>
<g filter="url(#filter1_dif)">
<path d="M249.645 6.11044C254.233 2.58077 260.852 3.67286 264.063 8.48968L269.36 16.4353C271.186 19.1752 271.546 22.6387 270.323 25.6962L266.318 35.7119C265.59 37.5308 265.413 39.5235 265.808 41.4423L274.455 83.4448C275.921 90.5646 284.252 93.7911 290.131 89.5156L294.142 86.5986C296.016 85.2356 297.359 83.2641 297.941 81.0209L305.629 51.366C307.428 44.4285 315.725 41.5797 321.406 45.9494L327.313 50.4934C330.421 52.8847 331.846 56.8725 330.954 60.6919L321.391 101.679C320.556 105.256 317.827 108.088 314.283 109.054L284.487 117.181C282.308 117.775 279.992 117.614 277.916 116.725L249.374 104.493C246.041 103.064 243.743 99.9436 243.367 96.3371L235.71 22.8307C235.351 19.3776 236.808 15.9851 239.56 13.8684L249.645 6.11044Z" fill="#40DD6C"/>
<path d="M-1.47444 172.269C-0.74135 164.938 5.99088 159.722 13.2726 160.842C18.9518 161.716 23.3607 166.252 24.0734 171.954L25.8293 185.996C27.2742 197.555 34.9634 207.381 45.8361 211.563L47.3215 212.135C49.8783 213.118 52.5438 213.791 55.261 214.14L99.0139 219.749C112.019 221.416 123.036 230.14 127.64 242.417L142.96 283.27C145.352 289.65 150.12 294.857 156.265 297.802L213.68 325.313C219.209 327.963 214.814 349.254 208.813 348C119.127 329.267 68.38 257.886 -5.26766 214.855C-6.08244 214.379 -6.8888 213.819 -7.28804 212.964C-10.2124 206.701 -3.22388 189.769 -2.58674 183.397L-1.47444 172.269Z" fill="#40DD6C"/>
</g>
<g filter="url(#filter2_dif)">
<path d="M352.675 98.7111C353.347 97.8499 354.477 97.485 355.526 97.7896C356.85 98.1742 357.665 99.5035 357.406 100.858L354.635 115.337C353.986 118.728 355.133 122.215 357.669 124.559L362.711 129.221C364.287 130.678 365.125 132.766 364.991 134.908L364.558 141.871C364.319 145.697 368.841 147.887 371.695 145.326C372.179 144.892 372.558 144.353 372.803 143.75L380.25 125.425C380.915 123.79 382.166 122.462 383.758 121.701L395.641 116.024C401.225 113.356 406.082 120.777 401.403 124.827L399.792 126.221C396.33 129.217 398.824 134.886 403.371 134.358C406.657 133.977 409.28 137.052 408.385 140.237L399.175 173.005C399.104 173.257 399.008 173.5 398.886 173.732C396.994 177.354 391.498 175.81 391.769 171.733L393.22 149.903C393.38 147.493 391.655 145.368 389.263 145.029C387.349 144.758 385.47 145.709 384.554 147.411L378.138 159.335C377.067 161.326 375.353 162.895 373.276 163.786L339.493 178.286C331.633 181.66 323.989 173.11 328.219 165.675C330.224 162.151 334.353 160.422 338.271 161.465L343.897 162.964C345.914 163.501 348.049 163.394 350.003 162.656L353.951 161.166C357.531 159.814 359.531 155.996 358.604 152.284C358.055 150.09 356.551 148.257 354.506 147.292L350.678 145.486C348.785 144.593 347.662 142.603 347.877 140.521C348.264 136.757 344.443 133.977 340.981 135.503L336.805 137.345C328.818 140.867 322.181 130.326 328.81 124.646L339 115.914C339.482 115.5 339.923 115.039 340.314 114.538L352.675 98.7111Z" fill="#38EC75"/>
</g>
<g filter="url(#filter3_dif)">
<path d="M192.443 4.9044C196.381 3.46016 199 -0.289093 199 -4.48437V-45.1871C199 -45.7076 199.207 -46.2068 199.575 -46.5748C200.522 -47.5219 202.119 -47.2628 202.718 -46.0648L203.057 -45.3859C203.789 -43.9222 205.703 -43.5393 206.942 -44.6089L213.846 -50.572C214.494 -51.1315 215.5 -50.6712 215.5 -49.8152C215.5 -49.61 215.437 -49.4099 215.319 -49.2418L204.66 -34.0137C202.693 -31.2037 202.303 -27.5817 203.627 -24.4177L208.815 -12.0252C209.889 -9.45858 211.985 -7.45566 214.597 -6.4978L218.798 -4.95747C222.808 -3.48724 227.308 -4.72572 230.001 -8.04031L238.39 -18.3651C238.463 -18.4549 238.544 -18.5383 238.631 -18.6145C240.023 -19.8325 242.188 -18.7232 242.013 -16.8819L240.852 -4.69647C240.632 -2.38814 239.27 -0.343803 237.224 0.747391L213.48 13.4109C211.547 14.4417 209.329 14.8094 207.167 14.4574L191.486 11.9047C189.854 11.639 188.182 11.7821 186.619 12.321L184.487 13.0563C179.062 14.9269 176.321 20.9689 178.486 26.283L179.619 29.0655C179.872 29.6869 180.188 30.2813 180.56 30.8396L189.473 44.209C189.789 44.683 189.771 45.3048 189.43 45.7606C188.939 46.4147 187.983 46.4827 187.404 45.9045L173.367 31.8671C172.791 31.2912 172.147 30.7881 171.448 30.3691C166.575 27.445 160.247 29.1843 157.552 34.1882L156.217 36.6693C155.744 37.5463 155.465 38.514 155.396 39.5078L154.987 45.4423C154.778 48.4668 151.289 50.0442 148.88 48.2026C147.268 46.9694 144.971 47.2197 143.662 48.7713L135.896 57.9755C133.787 60.4752 133.131 63.8926 134.165 66.9954L136.013 72.5404C136.805 74.9148 135.348 77.4483 132.898 77.9588C129.679 78.6293 128.456 82.5797 130.733 84.9514L134.941 89.3342C136.555 91.016 138.857 91.8572 141.175 91.6132L153.43 90.3232C155.43 90.1126 157.447 90.51 159.218 91.4635L170.741 97.6682C173.98 99.4124 176 102.794 176 106.473V110.614C176 115.004 178.863 118.881 183.059 120.172L215 130L233.92 135.233C236.396 135.918 237.774 138.558 236.918 140.981C236.126 143.226 233.703 144.444 231.428 143.741L196.54 132.95C192.69 131.76 189.17 135.546 190.639 139.299L190.705 139.469C191.207 140.75 191.086 142.191 190.378 143.37C188.761 146.065 184.933 146.271 183.035 143.766L165.341 120.41C163.554 118.051 160.119 117.756 157.955 119.775L156.97 120.695C153.777 123.675 148.63 120.874 149.397 116.575C149.465 116.193 149.582 115.822 149.745 115.47L153.813 106.656C154.797 104.524 154.158 101.993 152.279 100.584C150.609 99.3318 148.336 99.2531 146.584 100.387L135.431 107.604C133.533 108.832 131.275 109.38 129.026 109.16L104.313 106.745C101.132 106.434 97.9934 107.662 95.8688 110.051L72.0105 136.868C69.0443 140.202 64.2281 141.167 60.2063 139.234L45.5726 132.198C43.6109 131.255 43.4841 128.51 45.3506 127.39C45.7755 127.135 46.2618 127 46.7573 127H60.1257C66.9513 127 71.771 120.313 69.6126 113.838L67.2416 106.725C66.4504 104.351 64.7001 102.418 62.4165 101.395L25.9397 85.06C19.1416 82.0156 22.8589 71.7679 30.0278 73.7899C35.6947 75.3882 40.042 68.7295 36.2989 64.1844L7.6927 29.4483C6.90444 28.4911 5.94505 27.6889 4.86345 27.0825L-24.7026 10.5076C-25.8884 9.84286 -26.9262 8.9433 -27.7526 7.86391L-49.1091 -20.0302C-50.3406 -21.6387 -52.0316 -22.8353 -53.9583 -23.4614L-64.0909 -26.7545C-68.2107 -28.0935 -71 -31.9329 -71 -36.2649V-43.6393C-71 -54.1916 -56.7748 -57.5497 -52.0557 -48.1115L-41.5 -27L-22.7943 1.27599C-21.0377 3.93142 -18.1215 5.59164 -14.9414 5.74677L9.13564 6.92125C14.3118 7.17374 17.1983 13.0124 14.2562 17.2785C12.3879 19.9875 12.7963 23.6582 15.2144 25.8902L71.8198 78.1413C74.7399 80.8368 79.343 77.9221 78.1551 74.1298C76.8019 69.8098 82.6823 67.0644 85.1253 70.8755L94.1064 84.886C94.3679 85.2939 94.6769 85.6692 95.0271 86.0042L103.68 94.2809C105.189 95.724 107.115 96.6593 109.182 96.9546C114.99 97.7843 120.275 93.4603 120.594 87.6016L121.5 71L122.548 56.6728C122.825 52.8905 125.218 49.5902 128.726 48.1508L140.426 43.351C141.792 42.7906 143.016 41.9348 144.012 40.845L167.353 15.3025C168.435 14.1182 169.786 13.2117 171.292 12.6594L192.443 4.9044Z" fill="#38EC75"/>
</g>
</g>
<defs>
<filter id="filter0_dif" x="197.017" y="139.358" width="149.548" height="175.265" filterUnits="userSpaceOnUse" color-interpolation-filters="sRGB">
<feFlood flood-opacity="0" result="BackgroundImageFix"/>
<feColorMatrix in="SourceAlpha" type="matrix" values="0 0 0 0 0 0 0 0 0 0 0 0 0 0 0 0 0 0 127 0" result="hardAlpha"/>
<feOffset/>
<feGaussianBlur stdDeviation="8"/>
<feComposite in2="hardAlpha" operator="out"/>
<feColorMatrix type="matrix" values="0 0 0 0 0.00392157 0 0 0 0 0.839216 0 0 0 0 0.435294 0 0 0 1 0"/>
<feBlend mode="normal" in2="BackgroundImageFix" result="effect1_dropShadow"/>
<feBlend mode="normal" in="SourceGraphic" in2="effect1_dropShadow" result="shape"/>
<feColorMatrix in="SourceAlpha" type="matrix" values="0 0 0 0 0 0 0 0 0 0 0 0 0 0 0 0 0 0 127 0" result="hardAlpha"/>
<feOffset/>
<feGaussianBlur stdDeviation="4"/>
<feComposite in2="hardAlpha" operator="arithmetic" k2="-1" k3="1"/>
<feColorMatrix type="matrix" values="0 0 0 0 0 0 0 0 0 0 0 0 0 0 0 0 0 0 1 0"/>
<feBlend mode="normal" in2="shape" result="effect2_innerShadow"/>
<feGaussianBlur stdDeviation="1" result="effect3_foregroundBlur"/>
</filter>
<filter id="filter1_dif" x="-24" y="-11.9642" width="371.216" height="376.017" filterUnits="userSpaceOnUse" color-interpolation-filters="sRGB">
<feFlood flood-opacity="0" result="BackgroundImageFix"/>
<feColorMatrix in="SourceAlpha" type="matrix" values="0 0 0 0 0 0 0 0 0 0 0 0 0 0 0 0 0 0 127 0" result="hardAlpha"/>
<feOffset/>
<feGaussianBlur stdDeviation="8"/>
<feComposite in2="hardAlpha" operator="out"/>
<feColorMatrix type="matrix" values="0 0 0 0 0.00392157 0 0 0 0 0.839216 0 0 0 0 0.435294 0 0 0 1 0"/>
<feBlend mode="normal" in2="BackgroundImageFix" result="effect1_dropShadow"/>
<feBlend mode="normal" in="SourceGraphic" in2="effect1_dropShadow" result="shape"/>
<feColorMatrix in="SourceAlpha" type="matrix" values="0 0 0 0 0 0 0 0 0 0 0 0 0 0 0 0 0 0 127 0" result="hardAlpha"/>
<feOffset/>
<feGaussianBlur stdDeviation="4"/>
<feComposite in2="hardAlpha" operator="arithmetic" k2="-1" k3="1"/>
<feColorMatrix type="matrix" values="0 0 0 0 0 0 0 0 0 0 0 0 0 0 0 0 0 0 1 0"/>
<feBlend mode="normal" in2="shape" result="effect2_innerShadow"/>
<feGaussianBlur stdDeviation="1" result="effect3_foregroundBlur"/>
</filter>
<filter id="filter2_dif" x="310.099" y="81.6835" width="114.463" height="113.361" filterUnits="userSpaceOnUse" color-interpolation-filters="sRGB">
<feFlood flood-opacity="0" result="BackgroundImageFix"/>
<feColorMatrix in="SourceAlpha" type="matrix" values="0 0 0 0 0 0 0 0 0 0 0 0 0 0 0 0 0 0 127 0" result="hardAlpha"/>
<feOffset/>
<feGaussianBlur stdDeviation="8"/>
<feComposite in2="hardAlpha" operator="out"/>
<feColorMatrix type="matrix" values="0 0 0 0 0.00392157 0 0 0 0 0.839216 0 0 0 0 0.435294 0 0 0 1 0"/>
<feBlend mode="normal" in2="BackgroundImageFix" result="effect1_dropShadow"/>
<feBlend mode="normal" in="SourceGraphic" in2="effect1_dropShadow" result="shape"/>
<feColorMatrix in="SourceAlpha" type="matrix" values="0 0 0 0 0 0 0 0 0 0 0 0 0 0 0 0 0 0 127 0" result="hardAlpha"/>
<feOffset/>
<feGaussianBlur stdDeviation="4"/>
<feComposite in2="hardAlpha" operator="arithmetic" k2="-1" k3="1"/>
<feColorMatrix type="matrix" values="0 0 0 0 0 0 0 0 0 0 0 0 0 0 0 0 0 0 1 0"/>
<feBlend mode="normal" in2="shape" result="effect2_innerShadow"/>
<feGaussianBlur stdDeviation="1" result="effect3_foregroundBlur"/>
</filter>
<filter id="filter3_dif" x="-87" y="-69.6543" width="345.022" height="231.179" filterUnits="userSpaceOnUse" color-interpolation-filters="sRGB">
<feFlood flood-opacity="0" result="BackgroundImageFix"/>
<feColorMatrix in="SourceAlpha" type="matrix" values="0 0 0 0 0 0 0 0 0 0 0 0 0 0 0 0 0 0 127 0" result="hardAlpha"/>
<feOffset/>
<feGaussianBlur stdDeviation="8"/>
<feComposite in2="hardAlpha" operator="out"/>
<feColorMatrix type="matrix" values="0 0 0 0 0.00392157 0 0 0 0 0.839216 0 0 0 0 0.435294 0 0 0 1 0"/>
<feBlend mode="normal" in2="BackgroundImageFix" result="effect1_dropShadow"/>
<feBlend mode="normal" in="SourceGraphic" in2="effect1_dropShadow" result="shape"/>
<feColorMatrix in="SourceAlpha" type="matrix" values="0 0 0 0 0 0 0 0 0 0 0 0 0 0 0 0 0 0 127 0" result="hardAlpha"/>
<feOffset/>
<feGaussianBlur stdDeviation="4"/>
<feComposite in2="hardAlpha" operator="arithmetic" k2="-1" k3="1"/>
<feColorMatrix type="matrix" values="0 0 0 0 0 0 0 0 0 0 0 0 0 0 0 0 0 0 1 0"/>
<feBlend mode="normal" in2="shape" result="effect2_innerShadow"/>
<feGaussianBlur stdDeviation="1" result="effect3_foregroundBlur"/>
</filter>
</defs>
</svg>
