<svg width="111" height="112" viewBox="0 0 111 112" fill="none" xmlns="http://www.w3.org/2000/svg">
<path d="M59.5429 98.1897C56.4656 100.317 52.4273 100.435 49.2465 98.4921L31.0267 87.361C29.8022 86.6129 28.7665 85.5945 27.999 84.3837L10.2877 56.4443C8.05206 52.9177 8.42222 48.3326 11.1964 45.1885L29.9888 23.8897C31.5321 22.1407 33.6674 21.0212 35.983 20.7472L62.2369 17.641C64.8575 17.3309 67.484 18.1297 69.479 19.8435L88.1554 35.887C89.598 37.1262 90.6283 38.7744 91.1104 40.6139L96.6333 61.6879C97.2373 63.9927 96.9409 66.444 95.8041 68.5462L87.5174 83.8695C85.8479 86.9565 82.6024 88.8701 79.0934 88.8365L76.1605 88.8084C74.2065 88.7896 72.2925 89.3771 70.683 90.4896L59.5429 98.1897Z" fill="#555555"/>
</svg>
