<svg width="145" height="153" viewBox="0 0 145 153" fill="none" xmlns="http://www.w3.org/2000/svg">
<mask id="mask0" style="mask-type:alpha" maskUnits="userSpaceOnUse" x="0" y="0" width="145" height="153">
<path d="M106.843 8.18945C113.629 7.87855 119.961 11.5853 122.986 17.6405L140.316 52.3248C141.481 54.6559 142.094 57.2213 142.11 59.8246L142.468 119.896C142.513 127.479 137.528 134.181 130.229 136.35L80.7838 151.041C76.7234 152.247 72.3577 151.914 68.529 150.106L25.1184 129.603C20.7853 127.556 17.511 123.797 16.0902 119.237L2.78877 76.5499C1.76134 73.2527 1.76245 69.723 2.79192 66.4267L14.5859 28.6632C15.8757 24.5331 18.6928 21.0448 22.4677 18.9033L49.9835 3.2935C55.5268 0.14875 62.3664 0.328421 67.7364 3.75985L72.2245 6.62778C75.2147 8.53854 78.7273 9.47752 82.2765 9.31491L106.843 8.18945Z" fill="#555555"/>
</mask>
<g mask="url(#mask0)">
<path d="M107.119 8.04138C113.905 7.73048 120.237 11.4372 123.262 17.4925L140.592 52.1767C141.756 54.5079 142.37 57.0733 142.386 59.6766L142.744 119.748C142.789 127.331 137.804 134.033 130.504 136.202L81.0597 150.893C76.9993 152.099 72.6336 151.766 68.8049 149.958L25.3943 129.455C21.0612 127.408 17.7869 123.649 16.3661 119.089L3.06465 76.4018C2.03722 73.1046 2.03832 69.5749 3.0678 66.2786L14.8618 28.5151C16.1516 24.3851 18.9687 20.8967 22.7436 18.7552L50.2594 3.14542C55.8027 0.000679122 62.6423 0.18035 68.0122 3.61178L72.5004 6.47971C75.4906 8.39046 79.0031 9.32945 82.5524 9.16684L107.119 8.04138Z" fill="#555555"/>
<path d="M75.7753 154.581C75.2282 154.522 74.691 154.393 74.177 154.196L73.4095 153.903C69.432 152.383 68.351 147.263 71.3746 144.265C72.6362 143.014 73.2623 141.259 73.077 139.492L72.6766 135.673C72.2882 131.968 70.4263 128.576 67.51 126.258L54.9939 116.314C53.3697 115.023 51.3259 114.378 49.255 114.503C43.9067 114.824 39.6244 110.131 40.4321 104.834L40.6363 103.495C41.5046 97.8019 47.1943 94.181 52.7197 95.8055L61.6535 98.4322L69.433 101.206C73.4187 102.626 75.2596 107.217 73.36 110.998L72.4257 112.858C71.0795 115.537 72.311 118.795 75.0931 119.914C75.654 120.14 76.2505 120.264 76.8549 120.282L77.7872 120.309C83.8535 120.488 88.4664 125.822 87.7686 131.85L86.0527 146.676C85.4825 151.603 81.0464 155.148 76.1155 154.617L75.7753 154.581Z" fill="#2D2D2D"/>
</g>
</svg>
