<svg width="387" height="308" viewBox="0 0 387 308" fill="none" xmlns="http://www.w3.org/2000/svg">
<mask id="mask0" style="mask-type:alpha" maskUnits="userSpaceOnUse" x="0" y="0" width="387" height="308">
<path d="M0.28075 80.6523C-2.1156 60.384 11.061 41.5382 30.9201 36.8304L127.26 22.3872C135.082 20.5328 147.565 24.875 153.382 30.4246L208.325 85.5419C221.193 97.82 241.91 84.6738 236.28 67.8021C232.209 55.6001 218.885 -1.84244 231.571 0.284238L294.037 12.3404C302.268 13.7202 306.324 22.6191 312.232 28.5131L368.475 84.6153C374.803 90.9273 378.846 99.1686 379.965 108.036L386.022 156.041C387.572 168.32 383.377 180.629 374.65 189.406L309.078 255.359C305.355 259.105 300.932 262.077 296.063 264.11C295.574 264.314 295.096 264.545 294.64 264.815L240.466 296.896C240.009 297.167 239.534 297.398 239.042 297.597C229.527 301.441 217.629 307.881 208.755 307.868C207.775 307.867 206.818 307.616 205.909 307.248L110.78 268.802C103.144 265.311 76.454 253.692 72.2803 246.406L26.2803 150.302C23.5908 145.608 9.41555 118.175 8.78027 112.802L0.28075 80.6523Z" fill="#555555"/>
</mask>
<g mask="url(#mask0)">
<path d="M0.28075 80.6523C-2.1156 60.384 11.061 41.5382 30.9201 36.8304L127.26 22.3872C135.082 20.5328 147.565 24.875 153.382 30.4246L208.325 85.5419C221.193 97.82 241.91 84.6738 236.28 67.8021C232.209 55.6001 218.885 -1.84244 231.571 0.284238L294.037 12.3404C302.268 13.7202 306.324 22.6191 312.232 28.5131L368.475 84.6153C374.803 90.9273 378.846 99.1686 379.965 108.036L386.022 156.041C387.572 168.32 383.377 180.629 374.65 189.406L309.078 255.359C305.355 259.105 300.932 262.077 296.063 264.11C295.574 264.314 295.096 264.545 294.64 264.815L240.466 296.896C240.009 297.167 239.534 297.398 239.042 297.597C229.527 301.441 217.629 307.881 208.755 307.868C207.775 307.867 206.818 307.616 205.909 307.248L110.78 268.802C103.144 265.311 76.454 253.692 72.2803 246.406L26.2803 150.302C23.5908 145.608 9.41555 118.175 8.78027 112.802L0.28075 80.6523Z" fill="#555555"/>
<g filter="url(#filter0_dif)">
<path d="M114.983 26.6128C112.84 25.5411 108.553 17.6216 108.241 13.8926C108.12 12.4363 109.746 12.1326 111.184 12.3886L129.783 15.6972C131.221 15.9531 132.698 15.8523 134.156 15.7497C137.461 15.5171 142.175 16.0858 149 16.0858C189.302 14.0156 190.146 4.03344 205.498 -0.630675C210.664 -2.19998 217.179 -6.51258 222.569 -6.20189C227.327 -5.92764 233.212 -4.5654 236.76 -4.24289C242.017 -3.76494 246.204 0.362438 246.756 5.61253L249.315 29.9244C249.653 33.1346 250.377 36.2924 251.47 39.3296L257.988 57.436C263.877 73.7928 258.344 92.0757 244.375 102.423C227.263 115.099 203.176 111.877 189.997 95.1498L165.116 63.5708C162.661 60.4538 159.757 57.7178 156.499 55.4517L115.393 26.8565C115.263 26.7655 115.126 26.6841 114.983 26.6128Z" fill="#40DD6C"/>
<path d="M172.729 299.324C169.11 304.862 161.394 305.847 156.499 301.397L149.92 295.416C145.879 291.742 147.897 285.025 153.293 284.185C157.761 283.49 160.171 278.559 157.975 274.606L143.776 249.061C141.368 244.728 137.12 241.724 132.232 240.898C124.338 239.564 116.641 244.154 114.063 251.734L111.601 258.972C108.975 266.692 99.4474 269.413 93.1409 264.244C88.6536 260.566 87.5467 254.152 90.5419 249.183L109.435 217.838C112.589 212.606 117.807 208.951 123.802 207.774C133.69 205.834 143.608 210.976 147.722 220.175L157.404 241.822C159.903 247.411 163.647 252.355 168.349 256.277L223.43 302.216C230.667 308.251 227.446 319.999 218.143 321.5C213.886 322.187 209.621 320.32 207.237 316.727L194.557 297.61C189.622 290.171 178.687 290.209 173.803 297.681L172.729 299.324Z" fill="#40DD6C"/>
</g>
<g filter="url(#filter1_dif)">
<path d="M349.443 131.904C353.381 130.46 356 126.711 356 122.516V81.8128C356 81.2923 356.207 80.7932 356.575 80.4252C357.522 79.478 359.119 79.7371 359.718 80.9352L360.057 81.6141C360.789 83.0778 362.703 83.4607 363.942 82.391L370.846 76.428C371.494 75.8684 372.5 76.3287 372.5 77.1847C372.5 77.3899 372.437 77.5901 372.319 77.7582L361.66 92.9863C359.693 95.7962 359.303 99.4183 360.627 102.582L365.815 114.975C366.889 117.541 368.985 119.544 371.597 120.502L375.798 122.042C379.808 123.513 384.308 122.274 387.001 118.96L395.39 108.635C395.463 108.545 395.544 108.462 395.631 108.385C397.023 107.167 399.188 108.277 399.013 110.118L397.852 122.303C397.632 124.612 396.27 126.656 394.224 127.747L370.48 140.411C368.547 141.442 366.329 141.809 364.167 141.457L348.486 138.905C346.854 138.639 345.182 138.782 343.619 139.321L341.487 140.056C336.062 141.927 333.321 147.969 335.486 153.283L336.619 156.065C336.872 156.687 337.188 157.281 337.56 157.84L346.473 171.209C346.789 171.683 346.771 172.305 346.43 172.76C345.939 173.415 344.983 173.483 344.404 172.904L330.367 158.867C329.791 158.291 329.147 157.788 328.448 157.369C323.575 154.445 317.247 156.184 314.552 161.188L313.217 163.669C312.744 164.546 312.465 165.514 312.396 166.508L311.987 172.442C311.778 175.467 308.289 177.044 305.88 175.203C304.268 173.969 301.971 174.22 300.662 175.771L292.896 184.975C290.787 187.475 290.131 190.893 291.165 193.995L293.013 199.54C293.805 201.915 292.348 204.448 289.898 204.959C286.679 205.629 285.456 209.58 287.733 211.951L291.941 216.334C293.555 218.016 295.857 218.857 298.175 218.613L310.43 217.323C312.43 217.113 314.447 217.51 316.218 218.463L327.741 224.668C330.98 226.412 333 229.794 333 233.473V237.614C333 242.004 335.863 245.881 340.059 247.172L372 257L390.92 262.233C393.396 262.918 394.774 265.558 393.918 267.981C393.126 270.226 390.703 271.444 388.428 270.741L353.54 259.95C349.69 258.76 346.17 262.546 347.639 266.299L347.705 266.469C348.207 267.75 348.086 269.191 347.378 270.37C345.761 273.065 341.933 273.271 340.035 270.766L322.341 247.41C320.554 245.051 317.119 244.756 314.955 246.775L313.97 247.695C310.777 250.674 305.63 247.874 306.397 243.575C306.465 243.193 306.582 242.822 306.745 242.47L310.813 233.656C311.797 231.524 311.158 228.993 309.279 227.584C307.609 226.332 305.336 226.253 303.584 227.387L292.431 234.603C290.533 235.831 288.275 236.38 286.026 236.16L261.313 233.745C258.132 233.434 254.993 234.662 252.869 237.051L229.01 263.868C226.044 267.202 221.228 268.167 217.206 266.234L202.573 259.198C200.611 258.255 200.484 255.509 202.351 254.39C202.776 254.135 203.262 254 203.757 254H217.126C223.951 254 228.771 247.313 226.613 240.838L224.242 233.725C223.45 231.351 221.7 229.418 219.417 228.395L182.94 212.06C176.142 209.016 179.859 198.768 187.028 200.79C192.695 202.388 197.042 195.729 193.299 191.184L164.693 156.448C163.904 155.491 162.945 154.689 161.863 154.082L132.297 137.508C131.112 136.843 130.074 135.943 129.247 134.864L107.891 106.97C106.659 105.361 104.968 104.165 103.042 103.539L92.9091 100.245C88.7893 98.9065 86 95.0671 86 90.7351V83.3606C86 72.8084 100.225 69.4503 104.944 78.8885L115.5 99.9999L134.206 128.276C135.962 130.931 138.879 132.592 142.059 132.747L166.136 133.921C171.312 134.174 174.198 140.012 171.256 144.278C169.388 146.987 169.796 150.658 172.214 152.89L228.82 205.141C231.74 207.837 236.343 204.922 235.155 201.13C233.802 196.81 239.682 194.064 242.125 197.875L251.106 211.886C251.368 212.294 251.677 212.669 252.027 213.004L260.68 221.281C262.189 222.724 264.115 223.659 266.182 223.954C271.99 224.784 277.275 220.46 277.594 214.602L278.5 198L279.548 183.673C279.825 179.89 282.218 176.59 285.726 175.151L297.426 170.351C298.792 169.791 300.016 168.935 301.012 167.845L324.353 142.302C325.435 141.118 326.786 140.212 328.292 139.659L349.443 131.904Z" fill="#38EC75"/>
</g>
</g>
<defs>
<filter id="filter0_dif" x="72.8647" y="-22.2178" width="203.455" height="359.858" filterUnits="userSpaceOnUse" color-interpolation-filters="sRGB">
<feFlood flood-opacity="0" result="BackgroundImageFix"/>
<feColorMatrix in="SourceAlpha" type="matrix" values="0 0 0 0 0 0 0 0 0 0 0 0 0 0 0 0 0 0 127 0" result="hardAlpha"/>
<feOffset/>
<feGaussianBlur stdDeviation="8"/>
<feComposite in2="hardAlpha" operator="out"/>
<feColorMatrix type="matrix" values="0 0 0 0 0.00392157 0 0 0 0 0.839216 0 0 0 0 0.435294 0 0 0 1 0"/>
<feBlend mode="normal" in2="BackgroundImageFix" result="effect1_dropShadow"/>
<feBlend mode="normal" in="SourceGraphic" in2="effect1_dropShadow" result="shape"/>
<feColorMatrix in="SourceAlpha" type="matrix" values="0 0 0 0 0 0 0 0 0 0 0 0 0 0 0 0 0 0 127 0" result="hardAlpha"/>
<feOffset/>
<feGaussianBlur stdDeviation="4"/>
<feComposite in2="hardAlpha" operator="arithmetic" k2="-1" k3="1"/>
<feColorMatrix type="matrix" values="0 0 0 0 0 0 0 0 0 0 0 0 0 0 0 0 0 0 1 0"/>
<feBlend mode="normal" in2="shape" result="effect2_innerShadow"/>
<feGaussianBlur stdDeviation="1" result="effect3_foregroundBlur"/>
</filter>
<filter id="filter1_dif" x="70" y="57.3456" width="345.022" height="231.179" filterUnits="userSpaceOnUse" color-interpolation-filters="sRGB">
<feFlood flood-opacity="0" result="BackgroundImageFix"/>
<feColorMatrix in="SourceAlpha" type="matrix" values="0 0 0 0 0 0 0 0 0 0 0 0 0 0 0 0 0 0 127 0" result="hardAlpha"/>
<feOffset/>
<feGaussianBlur stdDeviation="8"/>
<feComposite in2="hardAlpha" operator="out"/>
<feColorMatrix type="matrix" values="0 0 0 0 0.00392157 0 0 0 0 0.839216 0 0 0 0 0.435294 0 0 0 1 0"/>
<feBlend mode="normal" in2="BackgroundImageFix" result="effect1_dropShadow"/>
<feBlend mode="normal" in="SourceGraphic" in2="effect1_dropShadow" result="shape"/>
<feColorMatrix in="SourceAlpha" type="matrix" values="0 0 0 0 0 0 0 0 0 0 0 0 0 0 0 0 0 0 127 0" result="hardAlpha"/>
<feOffset/>
<feGaussianBlur stdDeviation="4"/>
<feComposite in2="hardAlpha" operator="arithmetic" k2="-1" k3="1"/>
<feColorMatrix type="matrix" values="0 0 0 0 0 0 0 0 0 0 0 0 0 0 0 0 0 0 1 0"/>
<feBlend mode="normal" in2="shape" result="effect2_innerShadow"/>
<feGaussianBlur stdDeviation="1" result="effect3_foregroundBlur"/>
</filter>
</defs>
</svg>
