<svg width="224" height="218" viewBox="0 0 224 218" fill="none" xmlns="http://www.w3.org/2000/svg">
<mask id="mask0" style="mask-type:alpha" maskUnits="userSpaceOnUse" x="36" y="34" width="149" height="140">
<path d="M47.6395 80.7735C42.8326 73.3002 45.1167 63.3353 52.6985 58.7016L88.0284 37.1095C90.8133 35.4075 94.0561 34.6079 97.313 34.82L160.563 38.9404C166.838 39.3492 172.276 43.4334 174.418 49.3458L183.584 74.6459C184.659 77.616 184.822 80.84 184.051 83.9033L179.216 103.107C178.289 106.789 175.996 109.981 172.802 112.035L172.464 112.253C165.703 116.602 163.747 125.608 168.096 132.369C169.571 134.662 170.372 137.322 170.409 140.048L170.553 150.827C170.65 158.026 165.877 164.384 158.937 166.3L134.411 173.071C129.393 174.456 124.015 173.286 120.026 169.941L109.322 160.964C104.01 156.509 96.4166 156.029 90.5856 159.779L78.378 167.632C74.3144 170.245 69.2795 170.86 64.7063 169.301L51.3369 164.744C45.8088 162.86 41.7673 158.084 40.8224 152.321L36.6115 126.636C35.9771 122.766 36.8014 118.799 38.9248 115.502L48.9441 99.9467C52.3047 94.7293 52.3068 88.0296 48.9496 82.8102L47.6395 80.7735Z" fill="#555555"/>
</mask>
<g mask="url(#mask0)">
<path d="M47.6395 80.7735C42.8326 73.3002 45.1167 63.3353 52.6985 58.7016L88.0284 37.1095C90.8133 35.4075 94.0561 34.6079 97.313 34.82L160.563 38.9404C166.838 39.3492 172.276 43.4334 174.418 49.3458L183.584 74.6459C184.659 77.616 184.822 80.84 184.051 83.9033L179.216 103.107C178.289 106.789 175.996 109.981 172.802 112.035L172.464 112.253C165.703 116.602 163.747 125.608 168.096 132.369C169.571 134.662 170.372 137.322 170.409 140.048L170.553 150.827C170.65 158.026 165.877 164.384 158.937 166.3L134.411 173.071C129.393 174.456 124.015 173.286 120.026 169.941L109.322 160.964C104.01 156.509 96.4166 156.029 90.5856 159.779L78.378 167.632C74.3144 170.245 69.2795 170.86 64.7063 169.301L51.3369 164.744C45.8088 162.86 41.7673 158.084 40.8224 152.321L36.6115 126.636C35.9771 122.766 36.8014 118.799 38.9248 115.502L48.9441 99.9467C52.3047 94.7293 52.3068 88.0296 48.9496 82.8102L47.6395 80.7735Z" fill="#555555"/>
<path d="M138.585 100.175C140.071 99.298 141.97 99.5979 143.114 100.89L148.977 107.513C151.796 110.698 155.884 112.466 160.136 112.338L174.114 111.92C174.809 111.846 175.273 112.618 174.881 113.197L171.116 118.769C169.982 120.447 167.763 120.995 165.978 120.038L163.121 118.507C162.338 118.087 161.487 117.809 160.608 117.685L137.611 114.451C135.709 114.184 134.03 113.071 133.043 111.423L130.218 106.707C128.156 103.262 131.492 99.111 135.299 100.384L135.61 100.489C136.6 100.82 137.685 100.705 138.585 100.175Z" fill="#2D2D2D"/>
</g>
</svg>
