<svg width="138" height="138" viewBox="0 0 138 138" fill="none" xmlns="http://www.w3.org/2000/svg">
  <path d="M37.5724 74.1415C5.17143 41.7405 0.411972 16.0281 0.00361633 5.43902C-0.109032 2.39747 2.39743 -0.108995 5.43898 0.00365487C16.0281 0.39793 41.7405 5.1574 74.1415 37.5725C74.1415 37.5725 88.1664 53.2167 91.4051 67.0727C92.1091 70.0579 90.9122 73.6487 88.2509 76.31L76.2959 88.265C73.6345 90.9264 70.0438 92.1233 67.0586 91.4192C53.2167 88.1805 37.5724 74.1415 37.5724 74.1415Z" fill="#FFB155" />
  <path d="M71.7901 23.8996C79.8305 25.9695 97.8686 53.5266 99.0655 69.4666C99.0655 69.5088 99.0796 69.537 99.1078 69.5088C100.051 69.016 117.906 60.0321 130.199 74.6907C130.213 74.7048 107.852 13.6203 71.7901 23.8996C71.7479 23.8996 71.7479 23.8855 71.7901 23.8996Z" fill="#FFB155" />
  <path d="M23.9843 71.7055C26.0542 79.7459 53.6112 97.784 69.5512 98.9809C69.5935 98.9809 69.6216 98.995 69.5935 99.0232C69.1006 99.9666 60.1168 117.822 74.7754 130.115C74.7895 130.129 13.705 107.768 23.9843 71.7055C23.9843 71.6633 23.9702 71.6633 23.9843 71.7055Z" fill="#FFB155" />
  <path d="M95.0944 120.976C87.9552 113.837 87.9552 102.248 95.0944 95.1086C102.234 87.9694 113.822 87.9694 120.962 95.1086C128.101 102.248 138 138 138 138C138 138 102.248 128.115 95.0944 120.976Z" fill="#FFB155" />
</svg>
