<svg width="462" height="462" viewBox="0 0 462 462" fill="none" xmlns="http://www.w3.org/2000/svg">
<circle cx="231" cy="231" r="221" fill="white" stroke="#FF9C41" stroke-width="20"/>
<mask id="mask0" style="mask-type:alpha" maskUnits="userSpaceOnUse" x="72" y="72" width="319" height="318">
<path d="M295.643 148.969C300.436 148.909 303.447 151.633 303.447 151.633C303.447 151.633 306.469 154.345 306.906 159.117C307.343 163.89 298.478 194.761 296.53 198.54C294.674 202.143 256.638 251.412 253.093 256.001C252.907 256.242 252.859 256.514 252.911 256.813L257.657 283.961C257.812 284.851 258.924 285.17 259.528 284.5L275.328 266.965C275.328 266.965 278.046 263.948 281.666 267.21C285.287 270.472 282.568 273.489 282.568 273.489L260.225 298.287C259.99 298.547 259.896 298.906 259.973 299.248L262.728 311.559C262.92 312.417 264.001 312.7 264.59 312.047L277.866 297.313C277.866 297.313 280.584 294.296 284.205 297.558C287.825 300.82 285.107 303.837 285.106 303.837L266.108 324.922C265.863 325.194 265.769 325.562 265.861 325.917C266.668 329.043 270.519 344.433 269.648 350.114C268.72 356.158 259.848 374.698 259.03 376.4C258.985 376.492 258.935 376.564 258.866 376.64L247.375 389.392C247.263 389.517 247.121 389.619 246.952 389.62C246.722 389.621 246.354 389.545 245.937 389.169C245.341 388.632 245.365 388.132 245.386 387.991C245.39 387.964 245.397 387.938 245.402 387.912L248.48 372.35C248.538 372.055 248.471 371.749 248.295 371.505L201.003 306.111C200.599 305.552 199.782 305.508 199.321 306.021L192.412 313.688C191.718 314.458 190.443 313.906 190.529 312.873L191.532 300.803C191.597 300.022 190.836 299.433 190.096 299.691L183.245 302.078C182.872 302.208 182.457 302.125 182.164 301.86L174.394 294.859L166.624 287.858C166.33 287.593 166.204 287.19 166.294 286.805L167.957 279.743C168.137 278.98 167.472 278.285 166.702 278.43L154.802 280.681C153.783 280.874 153.102 279.663 153.796 278.892L160.704 271.225C161.166 270.713 161.037 269.905 160.44 269.562L90.4886 229.315C90.228 229.165 89.9167 229.13 89.6293 229.219L74.4713 233.895C74.4456 233.903 74.4203 233.912 74.3943 233.919C74.256 233.955 73.7609 234.031 73.1652 233.494C72.7479 233.118 72.6346 232.76 72.6116 232.531C72.5948 232.363 72.6811 232.211 72.7937 232.086L84.2843 219.334C84.3528 219.258 84.419 219.2 84.5061 219.146C86.114 218.155 103.632 207.406 109.547 205.857C115.107 204.4 130.814 206.633 134.007 207.111C134.369 207.165 134.725 207.034 134.971 206.761L153.969 185.677C153.969 185.677 156.688 182.66 160.308 185.922C163.928 189.184 161.21 192.201 161.21 192.201L147.934 206.935C147.345 207.588 147.739 208.634 148.613 208.736L161.143 210.198C161.492 210.239 161.838 210.108 162.073 209.847L184.417 185.05C184.417 185.05 187.135 182.033 190.755 185.295C194.376 188.557 191.657 191.574 191.657 191.574L175.858 209.109C175.253 209.78 175.687 210.852 176.588 210.914L204.081 212.815C204.385 212.836 204.651 212.76 204.871 212.55C209.067 208.548 254.121 165.603 257.511 163.382C261.068 161.053 290.851 149.03 295.643 148.969Z" fill="white"/>
</mask>
<g mask="url(#mask0)">
<path d="M306.906 159.118C306.469 154.345 303.447 151.633 303.447 151.633C303.447 151.633 300.436 148.909 295.643 148.969C290.851 149.03 261.068 161.053 257.511 163.382C254.121 165.603 209.067 208.548 204.871 212.55C204.651 212.76 204.385 212.836 204.081 212.815L176.588 210.914C175.687 210.852 175.253 209.78 175.858 209.109L191.657 191.574C191.657 191.574 194.376 188.557 190.755 185.295C187.135 182.033 184.417 185.05 184.417 185.05L162.073 209.847C161.838 210.108 161.492 210.239 161.143 210.198L148.613 208.736C147.739 208.634 147.345 207.588 147.934 206.935L161.21 192.201C161.21 192.201 163.928 189.184 160.308 185.922C156.688 182.66 153.969 185.677 153.969 185.677L134.971 206.761C134.725 207.034 134.369 207.165 134.007 207.111C130.814 206.633 115.107 204.4 109.547 205.857C103.632 207.406 86.114 218.155 84.5061 219.146C84.419 219.2 84.3528 219.258 84.2843 219.334L72.7937 232.086C72.6811 232.211 72.5948 232.363 72.6116 232.531C72.6346 232.76 72.7479 233.118 73.1652 233.494C73.7609 234.031 74.256 233.955 74.3943 233.919C74.4203 233.912 74.4456 233.903 74.4713 233.895L89.6293 229.219C89.9167 229.13 90.228 229.165 90.4886 229.315L160.44 269.562C161.037 269.905 161.166 270.713 160.704 271.225L153.796 278.892C153.102 279.663 153.783 280.874 154.802 280.681L166.702 278.43C167.472 278.285 168.137 278.98 167.957 279.743L166.294 286.805C166.204 287.19 166.33 287.593 166.624 287.858L174.393 294.859L182.164 301.86C182.457 302.125 182.872 302.208 183.245 302.078L190.096 299.691C190.836 299.433 191.597 300.022 191.532 300.803L190.529 312.873C190.443 313.906 191.718 314.458 192.413 313.688L199.321 306.021C199.783 305.508 200.599 305.552 201.003 306.111L248.295 371.505C248.471 371.749 248.538 372.055 248.48 372.35L245.402 387.912C245.397 387.938 245.391 387.964 245.386 387.991C245.365 388.132 245.341 388.632 245.937 389.169C246.354 389.545 246.722 389.621 246.953 389.62C247.121 389.619 247.263 389.517 247.375 389.393L258.866 376.64C258.935 376.564 258.986 376.492 259.03 376.4C259.849 374.698 268.72 356.158 269.648 350.114C270.519 344.433 266.668 329.043 265.861 325.917C265.769 325.562 265.863 325.194 266.108 324.922L285.107 303.837C285.107 303.837 287.825 300.82 284.205 297.558C280.584 294.296 277.866 297.313 277.866 297.313L264.59 312.047C264.001 312.701 262.92 312.417 262.728 311.559L259.973 299.248C259.896 298.906 259.99 298.547 260.225 298.287L282.568 273.489C282.568 273.489 285.287 270.472 281.666 267.21C278.046 263.948 275.328 266.965 275.328 266.965L259.528 284.5C258.924 285.17 257.812 284.851 257.657 283.961L252.911 256.814C252.859 256.514 252.907 256.242 253.094 256.001C256.638 251.412 294.674 202.143 296.53 198.54C298.478 194.761 307.344 163.89 306.906 159.118Z" fill="#FF9C41"/>
<path d="M275.329 266.966C275.329 266.966 278.047 263.949 281.667 267.211C285.288 270.473 282.569 273.49 282.569 273.49L260.573 297.902C260.275 298.232 260.163 298.689 260.272 299.119L260.331 299.349C260.335 299.367 260.336 299.386 260.334 299.404C260.31 299.566 260.077 299.567 260.052 299.405L257.591 283.417L257.665 283.914C257.77 284.61 258.498 285.024 259.149 284.759C259.301 284.697 259.437 284.602 259.547 284.48L275.329 266.966Z" fill="black" fill-opacity="0.4"/>
<path d="M277.866 297.313C277.866 297.313 280.585 294.296 284.205 297.558C287.825 300.821 285.107 303.838 285.107 303.838L266.288 324.723C266.15 324.876 266.049 325.06 265.995 325.259C265.944 325.444 265.933 325.638 265.964 325.828L266.198 327.251L262.184 309.057L262.836 311.619C262.997 312.248 263.696 312.571 264.279 312.284C264.395 312.227 264.5 312.147 264.587 312.051L277.866 297.313Z" fill="black" fill-opacity="0.4"/>
<path d="M191.657 191.574C191.657 191.574 194.376 188.557 190.755 185.295C187.135 182.033 184.416 185.05 184.416 185.05L162.42 209.462C162.123 209.792 161.68 209.951 161.241 209.887L161.006 209.853C160.988 209.85 160.969 209.851 160.951 209.856C160.792 209.896 160.816 210.128 160.979 210.136L177.137 210.924L176.634 210.901C175.931 210.869 175.444 210.188 175.64 209.513C175.685 209.355 175.766 209.21 175.876 209.088L191.657 191.574Z" fill="black" fill-opacity="0.4"/>
<path d="M161.21 192.201C161.21 192.201 163.928 189.184 160.308 185.922C156.688 182.66 153.969 185.677 153.969 185.677L135.151 206.562C135.012 206.715 134.84 206.834 134.648 206.91C134.469 206.98 134.277 207.01 134.086 206.999L132.646 206.914L151.158 209.018L148.542 208.635C147.9 208.541 147.506 207.879 147.731 207.269C147.776 207.147 147.844 207.035 147.931 206.938L161.21 192.201Z" fill="black" fill-opacity="0.4"/>
<path d="M270.978 271.792L278.219 278.317L276.769 279.926L269.528 273.401L270.978 271.792Z" fill="white"/>
<path d="M274.06 301.537L281.301 308.061L279.851 309.67L272.61 303.146L274.06 301.537Z" fill="white"/>
<path d="M264.817 278.631L272.057 285.155L270.607 286.764L263.367 280.24L264.817 278.631Z" fill="white"/>
<path d="M267.898 308.375L275.139 314.9L273.689 316.509L266.449 309.984L267.898 308.375Z" fill="white"/>
<path d="M187.308 196.401L180.067 189.877L178.617 191.486L185.858 198.01L187.308 196.401Z" fill="white"/>
<path d="M157.404 196.424L150.163 189.9L148.713 191.509L155.954 198.033L157.404 196.424Z" fill="white"/>
<path d="M181.146 203.24L173.905 196.716L172.455 198.325L179.696 204.849L181.146 203.24Z" fill="white"/>
<path d="M151.242 203.263L144.001 196.739L142.552 198.348L149.792 204.872L151.242 203.263Z" fill="white"/>
<path d="M299.161 148.175C299.161 148.175 300.563 149.023 303.453 151.627C306.343 154.231 307.333 155.538 307.333 155.538L297.222 158.543L299.161 148.175Z" fill="black" fill-opacity="0.3"/>
<path d="M286.157 192.258C286.555 191.816 286.054 191.149 285.519 191.408L272.856 197.541C272.64 197.646 272.518 197.882 272.558 198.119L273.687 204.786C273.763 205.232 274.32 205.394 274.624 205.058L286.157 192.258Z" fill="white"/>
<path d="M264.837 173.047C265.234 172.605 265.95 173.035 265.748 173.594L260.962 186.825C260.88 187.051 260.659 187.196 260.419 187.181L253.671 186.75C253.219 186.721 253 186.184 253.303 185.847L264.837 173.047Z" fill="white"/>
<path d="M270.03 171.543C270.351 170.74 271.152 170.234 272.015 170.289L284.263 171.071C285.188 171.13 285.952 171.818 286.107 172.733L288.156 184.833C288.301 185.686 287.881 186.535 287.116 186.937L271.714 195.042C270.972 195.433 270.066 195.319 269.443 194.758L264.086 189.931C263.464 189.371 263.257 188.481 263.568 187.703L270.03 171.543Z" fill="white"/>
<path d="M279.826 353.379L273.713 347.143L248.402 372.076L240.367 384.151L246.48 390.388L279.826 353.379Z" fill="black" fill-opacity="0.2"/>
<path d="M105.243 196.072L112.081 201.505L89.9098 229.267L78.7349 238.513L71.8969 233.081L105.243 196.072Z" fill="black" fill-opacity="0.2"/>
<path d="M179.124 289.609L190.79 300.121L186.078 305.35L174.412 294.839L179.124 289.609Z" fill="black" fill-opacity="0.2"/>
<path d="M179.123 289.608L167.458 279.097L162.746 284.327L174.411 294.838L179.123 289.608Z" fill="black" fill-opacity="0.2"/>
<path d="M226.984 213.035C226.984 213.035 237.36 201.52 249.028 212.033C260.695 222.546 250.32 234.061 250.32 234.061L190.743 300.18L167.408 279.154L226.984 213.035Z" fill="black" fill-opacity="0.3"/>
<path d="M211.805 245.124C211.805 245.124 215.487 241.038 219.573 244.72C223.659 248.402 219.977 252.488 219.977 252.488L194.54 280.718L186.368 273.355L211.805 245.124Z" fill="black" fill-opacity="0.2"/>
<path d="M210.181 278.6L179.916 312.189L187.559 319.076L199.494 305.829L210.181 278.6Z" fill="black" fill-opacity="0.25"/>
<path d="M186.849 257.577L156.584 291.166L148.941 284.279L160.876 271.033L186.849 257.577Z" fill="black" fill-opacity="0.25"/>
<path d="M254.409 255.405L216.524 271.56L210.181 278.6L255.972 259.099L254.409 255.405Z" fill="white" fill-opacity="0.3"/>
<path d="M205.327 211.18L193.192 250.537L186.849 257.577L201.49 210.008L205.327 211.18Z" fill="white" fill-opacity="0.3"/>
<path d="M266.814 198.07L263.939 195.479L261.064 192.889C260.583 192.456 259.963 192.209 259.316 192.194L238.471 191.704C237.83 191.689 237.205 191.902 236.707 192.305L202.709 219.754L193.193 250.537L226.901 213.127C226.901 213.127 237.359 201.52 249.025 212.031C260.691 222.542 250.232 234.149 250.232 234.149L216.524 271.56L246.153 258.899L269.924 222.235C270.273 221.698 270.419 221.054 270.338 220.418L267.687 199.737C267.604 199.095 267.295 198.503 266.814 198.07Z" fill="#C4C4C4" fill-opacity="0.5"/>
</g>
</svg>
