<svg width="1978" height="570" viewBox="0 0 1978 570" fill="none" xmlns="http://www.w3.org/2000/svg">
<mask id="mask0_496:19" style="mask-type:alpha" maskUnits="userSpaceOnUse" x="0" y="0" width="575" height="570">
<path d="M409.057 133.697C409.057 133.697 403.335 129.092 394.689 129.703C386.043 130.313 333.525 155.134 327.348 159.711C321.458 164.074 244.602 246.321 237.444 253.986C237.069 254.388 236.597 254.554 236.047 254.547L186.208 253.988C184.575 253.97 183.68 252.079 184.701 250.805L211.395 217.495C211.395 217.495 211.395 217.495 211.395 217.495C211.395 217.495 215.988 211.764 209.11 206.252C202.232 200.741 197.64 206.472 197.64 206.472C197.64 206.472 197.64 206.472 197.64 206.472L159.89 253.579C159.493 254.074 158.881 254.347 158.248 254.31L135.471 252.979C133.883 252.886 133.062 251.04 134.057 249.799L156.487 221.808C156.487 221.808 156.487 221.808 156.487 221.808C156.487 221.808 161.08 216.077 154.202 210.566C147.325 205.054 142.732 210.786 142.732 210.786C142.732 210.786 142.732 210.786 142.732 210.786L110.634 250.84C110.22 251.357 109.59 251.631 108.93 251.571C103.115 251.042 74.5232 248.652 64.6375 251.864C54.1201 255.28 23.6139 276.518 20.8144 278.475C20.6628 278.581 20.5493 278.693 20.4336 278.837L1.02011 303.063C0.829969 303.3 0.690002 303.584 0.737812 303.884C0.803358 304.296 1.04525 304.931 1.83799 305.566C2.96957 306.473 3.85567 306.284 4.10152 306.205C4.14781 306.19 4.19257 306.171 4.23814 306.154L31.1172 296.126C31.6267 295.936 32.1924 295.966 32.6787 296.21L163.182 361.564C164.297 362.123 164.614 363.567 163.834 364.54L152.162 379.105C150.989 380.569 152.345 382.685 154.165 382.23L175.416 376.922C176.791 376.579 178.064 377.765 177.819 379.161L175.555 392.086C175.432 392.79 175.702 393.505 176.259 393.952L191.021 405.781L409.057 133.697Z" fill="#0085FF"/>
<path d="M409.056 133.696C409.056 133.696 414.797 138.277 416.085 146.848C417.373 155.419 404.592 212.084 401.471 219.11C398.496 225.809 334.972 318.74 329.052 327.396C328.741 327.85 328.682 328.346 328.808 328.882L340.213 377.402C340.587 378.991 342.627 379.453 343.648 378.178L370.341 344.868C370.341 344.868 370.341 344.868 370.341 344.868C370.341 344.868 374.934 339.137 381.812 344.648C388.689 350.16 384.097 355.891 384.097 355.891C384.097 355.891 384.097 355.891 384.097 355.891L346.347 402.998C345.95 403.493 345.818 404.15 345.992 404.76L352.254 426.699C352.691 428.229 354.671 428.628 355.666 427.387L378.096 399.396C378.096 399.396 378.096 399.396 378.096 399.396C378.096 399.396 382.689 393.665 389.566 399.176C396.444 404.688 391.851 410.419 391.851 410.419C391.851 410.419 391.851 410.419 391.851 410.419L359.753 450.474C359.339 450.991 359.208 451.665 359.411 452.296C361.194 457.856 369.757 485.24 368.777 495.588C367.734 506.597 353.654 540.998 352.354 544.157C352.283 544.328 352.199 544.463 352.083 544.607L332.67 568.833C332.479 569.07 332.233 569.269 331.93 569.287C331.514 569.313 330.841 569.215 330.049 568.58C328.917 567.673 328.908 566.767 328.932 566.51C328.936 566.462 328.945 566.414 328.952 566.366L332.882 537.948C332.956 537.409 332.804 536.863 332.46 536.442L240.239 423.314C239.451 422.348 237.973 422.354 237.193 423.327L225.521 437.892C224.349 439.356 221.988 438.493 222.035 436.618L222.585 414.722C222.62 413.305 221.186 412.32 219.876 412.863L207.755 417.89C207.095 418.163 206.338 418.056 205.78 417.609L191.019 405.78L409.056 133.696Z" fill="#0085FF"/>
</mask>
<g mask="url(#mask0_496:19)">
<path d="M409.056 133.696C409.056 133.696 414.797 138.277 416.085 146.849C417.373 155.42 404.592 212.084 401.472 219.11C398.496 225.809 334.972 318.74 329.052 327.396C328.741 327.85 328.682 328.347 328.808 328.882L340.213 377.402C340.587 378.991 342.627 379.453 343.648 378.179L370.342 344.868C370.342 344.868 370.342 344.868 370.342 344.868C370.342 344.868 374.934 339.137 381.812 344.648C388.69 350.16 384.097 355.891 384.097 355.891C384.097 355.891 384.097 355.891 384.097 355.891L346.347 402.998C345.951 403.493 345.818 404.15 345.992 404.76L352.254 426.7C352.691 428.229 354.672 428.628 355.666 427.387L378.096 399.396C378.096 399.396 378.096 399.396 378.096 399.396C378.096 399.396 382.689 393.665 389.567 399.177C396.444 404.688 391.851 410.419 391.851 410.419C391.851 410.419 391.851 410.419 391.851 410.419L359.753 450.474C359.339 450.991 359.209 451.665 359.411 452.296C361.195 457.856 369.757 485.24 368.777 495.588C367.734 506.597 353.654 540.998 352.354 544.157C352.283 544.328 352.199 544.463 352.083 544.607L332.67 568.833C332.48 569.07 332.233 569.269 331.93 569.288C331.514 569.313 330.842 569.216 330.049 568.58C328.917 567.673 328.908 566.768 328.932 566.51C328.937 566.462 328.945 566.414 328.952 566.366L332.882 537.948C332.957 537.409 332.804 536.863 332.46 536.442L240.24 423.315C239.452 422.348 237.973 422.354 237.193 423.327L225.521 437.892C224.349 439.356 221.988 438.493 222.035 436.618L222.585 414.722C222.62 413.305 221.186 412.321 219.877 412.863L207.756 417.89C207.095 418.164 206.338 418.056 205.781 417.609L191.02 405.78L409.056 133.696Z" fill="#FF9C41"/>
<path d="M409.057 133.697C409.057 133.697 403.335 129.092 394.689 129.703C386.043 130.313 333.525 155.134 327.348 159.711C321.459 164.074 244.602 246.321 237.444 253.986C237.069 254.388 236.597 254.554 236.047 254.547L186.208 253.988C184.575 253.97 183.68 252.079 184.701 250.805L211.395 217.495C211.395 217.495 211.395 217.495 211.395 217.495C211.395 217.495 215.988 211.764 209.11 206.252C202.232 200.741 197.64 206.472 197.64 206.472C197.64 206.472 197.64 206.472 197.64 206.472L159.89 253.579C159.493 254.074 158.881 254.347 158.248 254.31L135.471 252.979C133.883 252.886 133.062 251.04 134.057 249.799L156.487 221.808C156.487 221.808 156.487 221.808 156.487 221.808C156.487 221.808 161.08 216.077 154.202 210.566C147.325 205.054 142.732 210.786 142.732 210.786C142.732 210.786 142.732 210.786 142.732 210.786L110.634 250.84C110.22 251.357 109.59 251.631 108.93 251.571C103.115 251.042 74.5232 248.652 64.6376 251.864C54.1201 255.28 23.6139 276.518 20.8145 278.475C20.6628 278.581 20.5493 278.693 20.4336 278.837L1.02011 303.063C0.829973 303.3 0.690006 303.584 0.737816 303.884C0.803362 304.296 1.04526 304.931 1.838 305.566C2.96957 306.473 3.85568 306.284 4.10153 306.205C4.14781 306.19 4.19257 306.171 4.23814 306.154L31.1172 296.126C31.6267 295.936 32.1924 295.966 32.6787 296.21L163.182 361.564C164.297 362.123 164.614 363.567 163.834 364.54L152.162 379.105C150.989 380.569 152.345 382.685 154.165 382.23L175.416 376.922C176.791 376.579 178.064 377.765 177.819 379.161L175.555 392.086C175.432 392.79 175.702 393.505 176.259 393.952L191.021 405.781L409.057 133.697Z" fill="#FF9C41"/>
<path d="M370.343 344.869C370.343 344.869 370.343 344.869 370.343 344.869C370.343 344.869 374.936 339.138 381.813 344.649C388.691 350.161 384.098 355.892 384.098 355.892C384.098 355.892 384.098 355.892 384.098 355.892L346.935 402.268C346.432 402.894 346.277 403.73 346.52 404.496L346.649 404.904C346.659 404.937 346.663 404.971 346.66 405.005C346.634 405.299 346.214 405.325 346.152 405.036L340.037 376.426L340.224 377.316C340.485 378.561 341.843 379.233 342.991 378.686C343.259 378.559 343.495 378.372 343.68 378.141L370.343 344.869Z" fill="black" fill-opacity="0.4"/>
<path d="M378.097 399.397C378.097 399.397 378.097 399.397 378.097 399.397C378.097 399.397 382.689 393.666 389.567 399.177C396.445 404.688 391.852 410.42 391.852 410.42C391.852 410.42 391.852 410.42 391.852 410.42L360.058 450.095C359.824 450.387 359.662 450.729 359.583 451.094C359.51 451.434 359.512 451.785 359.588 452.124L360.158 454.669L351.009 422.239L352.455 426.796C352.811 427.916 354.106 428.425 355.129 427.847C355.334 427.731 355.514 427.577 355.661 427.394L378.097 399.397Z" fill="black" fill-opacity="0.4"/>
<path d="M211.394 217.494C211.394 217.494 211.394 217.494 211.394 217.494C211.394 217.494 215.987 211.763 209.11 206.252C202.232 200.74 197.639 206.472 197.639 206.472C197.639 206.472 197.639 206.472 197.639 206.472L160.476 252.847C159.973 253.474 159.191 253.808 158.392 253.738L157.965 253.7C157.931 253.697 157.897 253.701 157.864 253.711C157.583 253.801 157.649 254.217 157.944 254.214L187.2 253.949L186.29 253.96C185.018 253.976 184.066 252.798 184.349 251.557C184.415 251.268 184.546 250.998 184.732 250.766L211.394 217.494Z" fill="black" fill-opacity="0.4"/>
<path d="M156.487 221.808C156.487 221.808 156.487 221.808 156.487 221.808C156.487 221.808 161.08 216.077 154.202 210.566C147.325 205.054 142.732 210.786 142.732 210.786C142.732 210.786 142.732 210.786 142.732 210.786L110.938 250.461C110.704 250.753 110.406 250.986 110.066 251.142C109.751 251.287 109.408 251.362 109.061 251.361L106.452 251.359L140.097 253.222L135.333 252.804C134.163 252.701 133.384 251.547 133.726 250.423C133.794 250.198 133.905 249.989 134.052 249.805L156.487 221.808Z" fill="black" fill-opacity="0.4"/>
<path d="M362.993 354.039L376.749 365.062L374.299 368.118L360.544 357.095L362.993 354.039Z" fill="white"/>
<path d="M371.667 407.421L385.422 418.443L382.972 421.5L369.217 410.477L371.667 407.421Z" fill="white"/>
<path d="M352.583 367.03L366.338 378.052L363.889 381.109L350.134 370.086L352.583 367.03Z" fill="white"/>
<path d="M361.256 420.412L375.011 431.434L372.562 434.491L358.807 423.468L361.256 420.412Z" fill="white"/>
<path d="M204.046 226.665L190.291 215.642L187.842 218.699L201.597 229.722L204.046 226.665Z" fill="white"/>
<path d="M150.057 229.832L136.302 218.809L133.853 221.866L147.608 232.889L150.057 229.832Z" fill="white"/>
<path d="M193.636 239.656L179.881 228.633L177.431 231.69L191.186 242.713L193.636 239.656Z" fill="white"/>
<path d="M139.647 242.823L125.892 231.8L123.442 234.857L137.197 245.88L139.647 242.823Z" fill="white"/>
<path d="M409.302 133.893C412.741 136.649 414.649 141.315 414.649 141.315L398.892 146.884L409.302 133.893Z" fill="black" fill-opacity="0.3"/>
<path d="M409.302 133.893C405.863 131.137 400.893 130.291 400.893 130.291L398.892 146.884L409.302 133.893Z" fill="black" fill-opacity="0.3"/>
<path d="M378.746 171.523C378.746 171.523 379.128 171.829 379.398 172.65L384.75 195.903C384.941 196.734 384.573 197.593 383.839 198.027L355.175 215.01C354.474 215.426 353.588 215.364 352.952 214.854L347.514 210.496L378.746 171.523Z" fill="white"/>
<path d="M382.086 208.851C382.759 208.013 381.784 206.86 380.845 207.384L358.624 219.781C358.243 219.994 358.049 220.431 358.146 220.856L360.882 232.775C361.065 233.573 362.088 233.807 362.6 233.168L382.086 208.851Z" fill="white"/>
<path d="M378.744 171.521C378.744 171.521 378.362 171.215 377.501 171.13L353.641 170.974C352.788 170.969 352.03 171.515 351.766 172.326L341.437 204.002C341.184 204.777 341.438 205.627 342.074 206.137L347.512 210.495L378.744 171.521Z" fill="white"/>
<path d="M341.584 176.395C342.256 175.556 343.593 176.256 343.287 177.286L336.029 201.675C335.905 202.093 335.52 202.378 335.085 202.375L322.856 202.303C322.037 202.298 321.586 201.35 322.098 200.711L341.584 176.395Z" fill="white"/>
<path d="M387.496 500.419L375.807 489.798L332.714 537.461L319.468 560.101L331.157 570.723L387.496 500.419Z" fill="black" fill-opacity="0.2"/>
<path d="M55.8435 234.648L68.7572 243.741L31.6287 296.184L12.4186 314.045L-0.495075 304.952L55.8435 234.648Z" fill="black" fill-opacity="0.2"/>
<path d="M199.013 395.808L221.174 413.567L213.213 423.501L191.052 405.742L199.013 395.808Z" fill="black" fill-opacity="0.2"/>
<path d="M199.011 395.806L176.85 378.047L168.889 387.982L191.05 405.741L199.011 395.806Z" fill="black" fill-opacity="0.2"/>
<path d="M317.201 248.322C329.441 258.13 331.412 276.003 321.604 288.242L221.174 413.566L199.013 395.808L317.201 248.322Z" fill="black" fill-opacity="0.3"/>
<path d="M317.2 248.321C304.96 238.513 287.088 240.484 277.28 252.723L176.85 378.047L199.011 395.806L317.2 248.321Z" fill="black" fill-opacity="0.3"/>
<path d="M267.599 310.22C272.242 313.941 272.989 320.72 269.269 325.362L226.403 378.854L217.997 372.118L267.599 310.22Z" fill="black" fill-opacity="0.2"/>
<path d="M267.597 310.219C262.955 306.499 256.176 307.246 252.455 311.889L209.589 365.381L217.995 372.117L267.597 310.219Z" fill="black" fill-opacity="0.2"/>
<path d="M253.935 372.684L202.802 436.492L217.321 448.127L237.486 422.964L253.935 372.684Z" fill="black" fill-opacity="0.25"/>
<path d="M209.612 337.166L158.479 400.974L143.96 389.339L164.125 364.175L209.612 337.166Z" fill="black" fill-opacity="0.25"/>
<path d="M331.364 326.183L264.652 359.311L253.935 372.684L334.573 332.689L331.364 326.183Z" fill="white" fill-opacity="0.3"/>
<path d="M238.124 251.464L220.328 323.792L209.612 337.165L231.075 249.75L238.124 251.464Z" fill="white" fill-opacity="0.3"/>
<path d="M342.307 216.991L347.768 221.368C348.682 222.1 349.303 223.135 349.519 224.286L356.467 261.349C356.681 262.488 356.483 263.666 355.91 264.673L316.823 333.354L264.651 359.31L321.602 288.242C321.602 288.242 338.136 267.609 317.2 248.322L342.307 216.991Z" fill="#C4C4C4" fill-opacity="0.5"/>
<path d="M342.307 216.991L336.846 212.615C335.933 211.883 334.787 211.502 333.616 211.543L295.93 212.837C294.772 212.877 293.665 213.326 292.807 214.105L234.293 267.218L220.33 323.793L277.28 252.725C277.28 252.725 293.814 232.092 317.2 248.322L342.307 216.991Z" fill="#C4C4C4" fill-opacity="0.5"/>
</g>
<path d="M631.133 226.234C649.336 229.125 658.438 231.781 658.438 234.203C660.703 236.391 663.242 242.172 666.055 251.547C670.742 258.578 673.086 268.07 673.086 280.023C680.195 311.039 687.461 337.484 694.883 359.359C700.195 384.594 702.852 398.344 702.852 400.609C702.852 404.984 699.258 407.523 692.07 408.227H685.156C676.25 408.227 670.352 404.516 667.461 397.094C662.695 386.469 654.961 381.156 644.258 381.156C629.18 381.156 619.688 385.219 615.781 393.344C611.328 403.031 605.781 407.875 599.141 407.875L594.688 408.227H589.531C583.75 408.227 579.922 406.391 578.047 402.719L577.344 399.906C577.344 398.656 579.531 391.156 583.906 377.406C595.234 334.906 602.969 304.164 607.109 285.18V271.938C607.109 268.891 609.219 259.555 613.438 243.93C616.328 232.133 622.227 226.234 631.133 226.234ZM627.266 328.891V332.992C628.516 339.711 632.891 343.07 640.391 343.07C648.203 343.07 652.734 339.359 653.984 331.938V328.539C653.984 325.492 651.914 318.305 647.773 306.977C646.758 297.523 644.648 292.797 641.445 292.797H639.805C636.055 292.797 634.18 298.344 634.18 309.438C629.57 320.297 627.266 326.781 627.266 328.891ZM766.836 228.109H769.062C780.312 228.109 790.625 231.703 800 238.891C807.109 244.75 811.719 251.898 813.828 260.336C815.156 266.117 815.82 270.141 815.82 272.406C814.648 278.812 811.445 282.016 806.211 282.016H805.625C792.344 281.312 785.312 279.555 784.531 276.742C783.906 276.508 781.719 273.773 777.969 268.539C774.453 265.883 771.172 264.555 768.125 264.555H765.43C759.023 264.555 754.453 268.07 751.719 275.102L751.367 276.742V277.68C751.367 285.023 758.164 290.531 771.758 294.203C785.273 299.438 797.109 305.219 807.266 311.547C816.875 320.609 821.68 332.016 821.68 345.766C821.68 361.938 819.258 372.133 814.414 376.352C808.789 384.867 803.086 391.859 797.305 397.328C785.82 405.609 777.734 409.75 773.047 409.75L761.562 410.102C743.359 410.102 730 402.328 721.484 386.781C715.547 375.062 712.578 366.547 712.578 361.234V358.891C712.578 353.578 715.43 349.75 721.133 347.406C723.242 346.547 728.828 345.766 737.891 345.062C744.922 345.062 749.727 350.766 752.305 362.172C755.82 368.734 761.094 372.016 768.125 372.016H768.828C778.047 372.016 783.711 368.07 785.82 360.18V354.555C785.82 346.352 780.156 340.023 768.828 335.57C755.625 333.773 746.641 331.039 741.875 327.367C736.25 322.602 731.523 316.664 727.695 309.555C722.227 299.711 719.492 290.648 719.492 282.367V277.445C719.492 270.414 723.32 258.578 730.977 241.938C734.727 236.781 741.641 232.836 751.719 230.102C758.984 228.773 764.023 228.109 766.836 228.109ZM936.055 226.469L936.406 226.82H938.047C948.672 226.82 953.984 233.031 953.984 245.453V259.633C953.984 266.352 950.508 270.961 943.555 273.461L924.219 275.453C918.828 277.719 916.133 280.336 916.133 283.305C915.508 283.305 915.078 285.883 914.844 291.039L915.078 303.93C915.078 306.898 913.75 315.102 911.094 328.539C910.625 331.586 910.391 336.078 910.391 342.016V356.898C910.391 366.195 911.641 375.883 914.141 385.961L914.492 392.758V396.508C914.492 402.602 911.562 406.625 905.703 408.578L902.656 409.281C899.453 409.281 893.125 407.602 883.672 404.242C879.844 401.742 877.93 398.031 877.93 393.109V292.68C877.93 281.195 875.469 274.438 870.547 272.406C866.875 271.078 861.914 270.414 855.664 270.414H851.328C845.312 270.414 841.25 267.602 839.141 261.977C836.641 251.742 835.391 245.336 835.391 242.758V240.414C835.391 234.242 838.867 229.945 845.82 227.523L851.562 226.82H859.766C866.172 226.82 873.828 228.188 882.734 230.922C884.922 231.391 887.93 231.625 891.758 231.625H906.641C911.25 231.625 919.922 230.023 932.656 226.82H935.703L936.055 226.469ZM992.188 228.812H1058.98C1067.73 228.812 1073.01 230.492 1074.8 233.852C1075.74 235.883 1076.21 237.68 1076.21 239.242C1074.65 255.258 1072.73 263.266 1070.47 263.266C1068.52 265.297 1065.59 266.312 1061.68 266.312H1029.8C1020.35 266.312 1014.61 268.812 1012.58 273.812C1011.72 275.453 1011.02 277.953 1010.47 281.312C1010.47 288.422 1012.3 293.266 1015.98 295.844C1018.63 298.344 1024.38 299.594 1033.2 299.594H1047.38C1051.21 299.594 1056.64 298.891 1063.67 297.484H1065.43C1069.65 297.484 1072.23 300.766 1073.16 307.328L1073.52 323.266C1073.52 329.672 1069.1 333.383 1060.27 334.398H1058.28L1036.25 331.352H1027.11C1016.02 331.352 1010.47 336.898 1010.47 347.992V355.141C1010.47 363.5 1013.87 368.656 1020.66 370.609C1022.85 371.312 1025.78 371.664 1029.45 371.664H1030.86C1036.25 371.664 1045.04 370.219 1057.23 367.328L1060.62 366.977C1068.44 366.977 1073.4 369.789 1075.51 375.414L1076.21 379.516V394.281C1076.21 402.562 1071.8 406.703 1062.97 406.703H989.844C981.719 406.703 977.656 402.211 977.656 393.227V321.508C977.656 316.82 977.188 310.609 976.25 302.875C977.188 294.516 977.656 287.992 977.656 283.305V274.164C977.656 269.789 976.641 261.195 974.609 248.383V246.039C974.609 238.383 976.875 233.188 981.406 230.453C984.297 229.359 987.891 228.812 992.188 228.812ZM1124.73 225.531C1142.93 225.531 1155.62 226.898 1162.81 229.633C1179.61 230.883 1190.31 232.797 1194.92 235.375C1204.61 239.75 1210.31 244.672 1212.03 250.141C1214.38 254.438 1216.09 261.625 1217.19 271.703C1217.19 276.859 1213.79 288.344 1206.99 306.156C1201.21 315.844 1198.32 323.031 1198.32 327.719V329.008C1198.32 333.773 1201.68 341.664 1208.4 352.68C1212.62 360.961 1217.11 373.539 1221.88 390.414C1223.44 393.852 1224.22 396.664 1224.22 398.852C1224.22 402.602 1222.07 405.258 1217.77 406.82L1212.38 407.875L1206.99 407.523H1201.95L1195.86 407.875C1184.38 407.875 1176.88 399.477 1173.36 382.68C1167.27 368.852 1164.22 357.719 1164.22 349.281C1161.72 339.594 1157.11 334.75 1150.39 334.75C1145.16 334.75 1142.11 338.695 1141.25 346.586L1141.02 349.633L1141.25 349.984L1141.02 351.625V362.406L1141.25 365.453L1141.02 365.805V366.156C1141.02 369.828 1142.34 378.344 1145 391.703C1145 398.734 1142.66 403.578 1137.97 406.234C1136.41 407.094 1131.33 407.758 1122.73 408.227C1110.62 408.227 1104.57 402.953 1104.57 392.406V380.336L1104.22 378.227L1104.57 377.289L1104.92 364.75L1104.57 349.984C1106.84 335.219 1107.97 325.648 1107.97 321.273V279.438C1107.97 273.031 1106.84 264.398 1104.57 253.539L1104.22 248.5V247.445C1104.22 236.586 1106.48 229.984 1111.02 227.641C1114.38 226.234 1118.95 225.531 1124.73 225.531ZM1141.02 279.203L1141.25 282.133L1141.02 284.242C1141.02 292.133 1143.48 297.523 1148.4 300.414L1153.79 301.703H1158.83C1171.02 301.703 1177.97 296 1179.69 284.594L1180.04 280.141C1180.04 272.719 1176.68 267.328 1169.96 263.969C1166.84 262.641 1163.91 261.977 1161.17 261.977H1155.78C1149.53 261.977 1145.16 264.672 1142.66 270.062C1141.72 272.953 1141.17 276 1141.02 279.203ZM1293.95 224.359C1299.65 224.359 1309.88 226.195 1324.65 229.867C1340.43 235.102 1349.49 240.297 1351.84 245.453C1356.68 251.703 1360.94 260.297 1364.61 271.234C1368.52 284.359 1370.47 294.125 1370.47 300.531L1370.12 312.25L1370.82 325.023C1370.82 334.945 1367.73 346.742 1361.56 360.414C1358.83 369.477 1354.69 378.773 1349.14 388.305C1344.22 394.32 1339.06 398.812 1333.67 401.781C1324.69 406.078 1318.36 408.227 1314.69 408.227C1302.11 410.336 1294.41 411.391 1291.6 411.391C1276.6 411.391 1262.93 396.703 1250.59 367.328C1245.12 352.797 1242.38 333.852 1242.38 310.492C1240.74 301.508 1239.92 295.531 1239.92 292.562C1244.38 271 1248.63 257.914 1252.7 253.305C1261.84 239.086 1272.38 230.141 1284.34 226.469C1289.1 225.062 1292.3 224.359 1293.95 224.359ZM1276.48 315.648V320.805C1276.48 346.742 1282.11 362.602 1293.36 368.383C1296.88 370.18 1300.2 371.078 1303.32 371.078H1307.07C1317.54 371.078 1325.23 363.734 1330.16 349.047C1332.03 341 1332.97 331.703 1332.97 321.156V312.953C1332.97 289.594 1327.66 274.672 1317.03 268.188C1312.97 265.844 1308.63 264.672 1304.02 264.672C1292.3 264.672 1284.02 272.484 1279.18 288.109C1277.38 295.844 1276.48 305.023 1276.48 315.648ZM1420.51 228.461H1431.52C1438.24 228.461 1442.5 231.82 1444.3 238.539L1444.53 249.906L1444.3 251.898L1444.53 255.297V256.938C1444.53 260.297 1443.44 269.672 1441.25 285.062V355.375C1441.25 360.375 1442.34 368.852 1444.53 380.805V388.891C1444.53 401.781 1439.06 408.227 1428.12 408.227C1421.09 408.227 1415.31 405.766 1410.78 400.844C1409.22 398.656 1408.44 395.531 1408.44 391.469V339.672C1408.44 334.047 1406.99 325.219 1404.1 313.188L1403.75 310.492L1404.1 301.82L1403.4 280.727L1403.75 278.031L1403.4 274.984V274.633L1403.75 272.055L1403.4 268.305V261.625L1403.05 261.273L1403.4 260.922V246.156C1403.4 236.938 1406.05 231.469 1411.37 229.75C1414.1 228.891 1417.15 228.461 1420.51 228.461ZM1521.88 227.641L1528.67 227.992L1539.34 227.641C1558.63 227.641 1573.83 236.781 1584.92 255.062C1587.89 259.906 1589.38 267.562 1589.38 278.031C1592.58 295.453 1594.18 309.398 1594.18 319.867C1594.18 343.852 1589.73 366.352 1580.82 387.367C1574.8 394.32 1568.16 399.32 1560.9 402.367C1552.93 405.961 1544.26 407.758 1534.88 407.758H1497.15C1488.95 407.758 1484.14 402.562 1482.73 392.172L1481.8 385.258C1483.83 375.492 1484.84 367.172 1484.84 360.297V298.891C1484.84 290.453 1483.36 280.766 1480.39 269.828L1479.69 261.508L1480.39 248.148L1480.04 243.695C1480.04 233.227 1484.26 227.992 1492.7 227.992L1521.88 227.641ZM1517.77 297.602V342.836C1517.77 356.977 1519.02 364.867 1521.52 366.508C1524.73 369.477 1527.81 370.961 1530.78 370.961H1534.88C1546.6 370.961 1554.38 363.852 1558.2 349.633C1559.53 342.289 1560.2 332.68 1560.2 320.805C1560.2 294.242 1555.74 278.5 1546.84 273.578C1542.77 270.609 1538.09 269.125 1532.77 269.125C1526.84 269.125 1522.73 271.156 1520.47 275.219C1518.67 276.625 1517.77 284.086 1517.77 297.602ZM1664.02 228.109H1666.25C1677.5 228.109 1687.81 231.703 1697.19 238.891C1704.3 244.75 1708.91 251.898 1711.02 260.336C1712.34 266.117 1713.01 270.141 1713.01 272.406C1711.84 278.812 1708.63 282.016 1703.4 282.016H1702.81C1689.53 281.312 1682.5 279.555 1681.72 276.742C1681.09 276.508 1678.91 273.773 1675.16 268.539C1671.64 265.883 1668.36 264.555 1665.31 264.555H1662.62C1656.21 264.555 1651.64 268.07 1648.91 275.102L1648.55 276.742V277.68C1648.55 285.023 1655.35 290.531 1668.95 294.203C1682.46 299.438 1694.3 305.219 1704.45 311.547C1714.06 320.609 1718.87 332.016 1718.87 345.766C1718.87 361.938 1716.45 372.133 1711.6 376.352C1705.98 384.867 1700.27 391.859 1694.49 397.328C1683.01 405.609 1674.92 409.75 1670.23 409.75L1658.75 410.102C1640.55 410.102 1627.19 402.328 1618.67 386.781C1612.73 375.062 1609.77 366.547 1609.77 361.234V358.891C1609.77 353.578 1612.62 349.75 1618.32 347.406C1620.43 346.547 1626.02 345.766 1635.08 345.062C1642.11 345.062 1646.91 350.766 1649.49 362.172C1653.01 368.734 1658.28 372.016 1665.31 372.016H1666.02C1675.23 372.016 1680.9 368.07 1683.01 360.18V354.555C1683.01 346.352 1677.34 340.023 1666.02 335.57C1652.81 333.773 1643.83 331.039 1639.06 327.367C1633.44 322.602 1628.71 316.664 1624.88 309.555C1619.41 299.711 1616.68 290.648 1616.68 282.367V277.445C1616.68 270.414 1620.51 258.578 1628.16 241.938C1631.91 236.781 1638.83 232.836 1648.91 230.102C1656.17 228.773 1661.21 228.109 1664.02 228.109ZM1820.82 227.992C1825.2 227.992 1828.87 230.609 1831.84 235.844C1832.7 235.844 1833.24 244.516 1833.48 261.859L1832.77 275.922L1833.48 288.578C1833.01 291.547 1832.77 296.117 1832.77 302.289L1833.48 319.047C1833.48 324.516 1832.11 334.75 1829.38 349.75C1827.42 367.719 1825.27 378.344 1822.93 381.625C1814.73 401 1801.25 410.688 1782.5 410.688C1767.03 410.688 1753.24 403.617 1741.13 389.477C1735.43 380.336 1732.58 370.531 1732.58 360.062C1733.75 352.562 1737.07 348.812 1742.54 348.812L1758.24 347.055C1763.79 347.055 1767.3 351.625 1768.79 360.766C1771.76 367.797 1775.66 371.312 1780.51 371.312H1782.85C1789.1 371.312 1793.2 366.43 1795.16 356.664C1795.86 353.695 1796.21 348.109 1796.21 339.906V246.156C1796.21 238.578 1799.3 233.656 1805.47 231.391C1812.97 229.125 1818.09 227.992 1820.82 227.992ZM1916.68 224.477C1922.15 224.477 1931.6 227.016 1945.04 232.094C1952.3 236 1959.06 244.789 1965.31 258.461L1966.37 265.727C1966.37 272.758 1960.04 278.227 1947.38 282.133C1942.7 284.633 1940.35 287.172 1940.35 289.75V290.688C1940.35 295.922 1945.23 302.484 1955 310.375C1964.14 321.078 1968.71 333.305 1968.71 347.055V348.344L1968.95 348.695L1968.71 349.047V349.633C1968.71 363.461 1964.14 376.898 1955 389.945C1946.8 400.492 1939.69 406.352 1933.67 407.523C1928.59 408.852 1923.71 409.75 1919.02 410.219C1900.59 408.188 1891.37 406.234 1891.37 404.359C1887.23 401.234 1882.23 395.57 1876.37 387.367C1869.49 374.477 1866.05 364.711 1866.05 358.07C1866.05 351.117 1871.84 347.641 1883.4 347.641H1885.39C1891.88 347.641 1896.64 352.992 1899.69 363.695C1904.61 371.039 1909.73 374.711 1915.04 374.711C1923.95 374.711 1930.51 368.266 1934.73 355.375L1935.08 352.328C1935.08 342.016 1926.64 334.477 1909.77 329.711C1898.83 325.414 1890.39 320.648 1884.45 315.414C1875.08 304.711 1868.75 294.398 1865.47 284.477L1864.77 278.148V277.797C1864.77 268.031 1868.87 256.469 1877.07 243.109C1885.43 234.281 1893.44 228.969 1901.09 227.172C1906.64 225.766 1911.84 224.867 1916.68 224.477ZM1900.04 270.062V274.047C1900.04 282.094 1907.03 287.758 1921.02 291.039H1925.7C1931.72 289.789 1934.73 287.602 1934.73 284.477L1935.08 282.367C1935.08 275.492 1931.95 268.617 1925.7 261.742C1922.19 259.32 1918.75 258.109 1915.39 258.109H1915.04C1906.68 258.109 1901.68 262.094 1900.04 270.062Z" fill="#FF9C41"/>
</svg>
