<svg width="210" height="608" viewBox="0 0 210 608" fill="none" xmlns="http://www.w3.org/2000/svg">
<mask id="mask0_420:132" style="mask-type:alpha" maskUnits="userSpaceOnUse" x="0" y="0" width="210" height="608">
<path d="M64.9997 161.04C64.9997 161.04 63.9999 78.5386 105 0.0395508C146 78.5386 145 161.04 145 161.04V559.54L128.5 576.04H81.4997L64.9997 559.54V161.04Z" fill="#777777"/>
<path d="M145 241.039L210 321.539L200.5 343.039L145 319.039V241.039Z" fill="#777777"/>
<path d="M65 241.039L0 321.539L9.5 343.039L65 319.039V241.039Z" fill="#777777"/>
<path d="M145 400.039L200.5 495.539V552.039L145 535.539V400.039Z" fill="#777777"/>
<path d="M65 400.039L10 495.539V552.039L65 535.539V400.039Z" fill="#777777"/>
<path d="M81.5 576.039H128.5V607.539H81.5V576.039Z" fill="#777777"/>
</mask>
<g mask="url(#mask0_420:132)">
<path d="M64.9997 161.04C64.9997 161.04 63.9999 78.5386 105 0.0395508C146 78.5386 145 161.04 145 161.04V559.54L128.5 576.04H81.4997L64.9997 559.54V161.04Z" fill="#3D3D3D"/>
<rect x="97" y="240.039" width="16" height="96" rx="8" fill="#DF5B5B"/>
<rect x="97" y="400.039" width="16" height="136" rx="8" fill="#DF5B5B"/>
<rect x="65" y="176.039" width="80" height="32" fill="#C4C4C4"/>
<rect x="65" y="0.0385742" width="80" height="134" fill="#DF5B5B"/>
<rect x="65" y="360.039" width="80" height="16" fill="#C4C4C4"/>
<path d="M145 241.039L210 321.539L200.5 343.039L145 319.039V241.039Z" fill="#777777"/>
<path d="M65 241.039L0 321.539L9.5 343.039L65 319.039V241.039Z" fill="#777777"/>
<path d="M145 400.039L200.5 495.539V552.039L145 535.539V400.039Z" fill="#777777"/>
<path d="M65 400.039L10 495.539V552.039L65 535.539V400.039Z" fill="#777777"/>
<path d="M82 576.039H128V595.039H82V576.039Z" fill="#777777"/>
</g>
</svg>
