<svg width="159" height="215" viewBox="0 0 159 215" fill="none" xmlns="http://www.w3.org/2000/svg">
<path d="M21.3735 122.87C22.1604 122.506 22.693 121.736 22.7241 120.87C22.95 114.576 24.6952 88.3147 38.1808 58.2456C51.5349 28.4695 72.6678 6.78341 78.2423 1.3686C79.025 0.608279 80.2232 0.615739 80.9978 1.38442C86.5254 6.87023 107.536 28.8219 121.074 58.2456C134.742 87.9505 136.352 114.482 136.54 120.852C136.566 121.727 137.104 122.506 137.902 122.868C140.674 124.124 147.097 127.455 150.799 132.766C155.156 139.017 158.141 148.525 158.669 150.276C158.726 150.464 158.753 150.659 158.753 150.855V194.628C158.753 194.968 158.672 195.301 158.497 195.592C157.859 196.649 156.096 199.253 153.939 199.751C151.86 200.23 148.927 199.489 147.657 199.112C147.246 198.99 146.896 198.727 146.646 198.378L129.34 174.332C128.382 173.001 126.334 173.238 125.707 174.754L121.61 184.643C121.286 185.425 120.522 185.935 119.676 185.935H113.67C112.32 185.935 111.323 187.194 111.632 188.508L117.12 211.831C117.429 213.145 116.432 214.404 115.082 214.404H45.0103C43.6605 214.404 42.6635 213.145 42.9727 211.831L48.4605 188.508C48.7696 187.194 47.7727 185.935 46.4228 185.935H40.4167C39.5701 185.935 38.8068 185.425 38.4828 184.643L34.3829 174.747C33.7558 173.233 31.7113 172.994 30.752 174.322L13.942 197.598C13.9132 197.638 13.8849 197.674 13.8521 197.711C13.4769 198.131 10.8746 200.858 7.20036 200.169C3.92044 199.554 2.06414 196.395 1.51405 195.306C1.39159 195.063 1.33788 194.797 1.33532 194.525L0.922951 150.814C0.921352 150.645 0.938915 150.481 0.980363 150.317C1.40539 148.631 4.09025 138.528 8.87498 132.347C12.8527 127.21 18.7655 124.077 21.3735 122.87Z" fill="#48BDFF"/>
<path d="M101.397 99.9019C101.397 111.81 91.7442 121.463 79.8366 121.463C67.9289 121.463 58.2759 111.81 58.2759 99.9019C58.2759 87.9942 67.9289 78.3412 79.8366 78.3412C91.7442 78.3412 101.397 87.9942 101.397 99.9019Z" fill="white"/>
</svg>
