<svg width="434" height="397" viewBox="0 0 434 397" fill="none" xmlns="http://www.w3.org/2000/svg">
  <mask id="mask0" mask-type="alpha" maskUnits="userSpaceOnUse" x="0" y="0" width="434" height="397">
    <path d="M203 5.99268C209.462 0.0197641 216.913 2.77711e-05 216.999 3.1778e-08C217.002 -8.32691e-07 216.998 -8.32691e-07 217.001 3.1778e-08C217.087 2.77711e-05 224.538 0.0197641 231 5.99268C237.5 12 263.5 65.3159 265.5 72.9077C267.407 80.1458 276.13 194.765 276.94 205.444C276.982 206.004 277.252 206.437 277.695 206.784L317.767 238.164C319.08 239.192 321 238.257 321 236.59V193C321 193 321 185.5 330 185.5C339 185.5 339 193 339 193V254.644C339 255.292 339.314 255.9 339.842 256.275L358.842 269.759C360.167 270.699 362 269.752 362 268.128V231.5C362 231.5 362 224 371 224C380 224 380 231.5 380 231.5V283.916C380 284.592 380.327 285.213 380.891 285.586C385.863 288.878 410.173 305.232 416 314.104C422.199 323.542 432.947 359.947 433.928 363.294C433.981 363.475 434 363.637 434 363.826V395.528C434 395.838 433.93 396.154 433.701 396.362C433.386 396.649 432.787 397 431.75 397C430.269 397 429.683 396.284 429.538 396.064C429.511 396.022 429.487 395.979 429.462 395.936L414.446 370.781C414.162 370.304 413.692 369.967 413.148 369.85L267.419 338.592C266.174 338.325 265 339.274 265 340.548V359.608C265 361.523 262.568 362.343 261.408 360.819L247.864 343.019C246.987 341.867 245.215 341.999 244.519 343.267L238.07 355.013C237.718 355.653 237.046 356.05 236.316 356.05H197.684C196.954 356.05 196.282 355.653 195.93 355.013L189.481 343.267C188.785 341.999 187.013 341.867 186.136 343.019L172.592 360.819C171.432 362.343 169 361.523 169 359.608V340.548C169 339.274 167.826 338.325 166.581 338.592L20.8515 369.85C20.3085 369.967 19.8383 370.304 19.5536 370.781L4.5382 395.936C4.51274 395.979 4.4891 396.022 4.46177 396.064C4.31658 396.284 3.73079 397 2.25 397C1.21262 397 0.614485 396.649 0.299373 396.362C0.0695276 396.154 0 395.838 0 395.528V363.826C0 363.637 0.0190203 363.475 0.0721711 363.294C1.0531 359.947 11.8006 323.542 18 314.104C23.8269 305.232 48.1372 288.878 53.1094 285.586C53.6734 285.213 54 284.592 54 283.916V231.5C54 231.5 54 224 63 224C72 224 72 231.5 72 231.5V268.128C72 269.752 73.8332 270.699 75.1575 269.759L94.1575 256.275C94.686 255.9 95 255.292 95 254.644V193C95 193 95 185.5 104 185.5C113 185.5 113 193 113 193V236.59C113 238.257 114.92 239.192 116.233 238.164L156.305 206.784C156.748 206.437 157.018 206.004 157.06 205.444C157.87 194.765 166.593 80.1458 168.5 72.9077C170.5 65.3159 196.5 12 203 5.99268Z" fill="#D45AFF" />
  </mask>
  <g mask="url(#mask0)">
    <path d="M203 5.99268C209.462 0.0197641 216.913 2.77711e-05 216.999 3.1778e-08C217.002 -8.32691e-07 216.998 -8.32691e-07 217.001 3.1778e-08C217.087 2.77711e-05 224.538 0.0197641 231 5.99268C237.5 12 263.5 65.3159 265.5 72.9077C267.407 80.1458 276.13 194.765 276.94 205.444C276.982 206.004 277.252 206.437 277.695 206.784L317.767 238.164C319.08 239.192 321 238.257 321 236.59V193C321 193 321 185.5 330 185.5C339 185.5 339 193 339 193V254.644C339 255.292 339.314 255.9 339.842 256.275L358.842 269.759C360.167 270.699 362 269.752 362 268.128V231.5C362 231.5 362 224 371 224C380 224 380 231.5 380 231.5V283.916C380 284.592 380.327 285.213 380.891 285.586C385.863 288.878 410.173 305.232 416 314.104C422.199 323.542 432.947 359.947 433.928 363.294C433.981 363.475 434 363.637 434 363.826V395.528C434 395.838 433.93 396.154 433.701 396.362C433.386 396.649 432.787 397 431.75 397C430.269 397 429.683 396.284 429.538 396.064C429.511 396.022 429.487 395.979 429.462 395.936L414.446 370.781C414.162 370.304 413.692 369.967 413.148 369.85L267.419 338.592C266.174 338.325 265 339.274 265 340.548V359.608C265 361.523 262.568 362.343 261.408 360.819L247.864 343.019C246.987 341.867 245.215 341.999 244.519 343.267L238.07 355.013C237.718 355.653 237.046 356.05 236.316 356.05H197.684C196.954 356.05 196.282 355.653 195.93 355.013L189.481 343.267C188.785 341.999 187.013 341.867 186.136 343.019L172.592 360.819C171.432 362.343 169 361.523 169 359.608V340.548C169 339.274 167.826 338.325 166.581 338.592L20.8515 369.85C20.3085 369.967 19.8383 370.304 19.5536 370.781L4.5382 395.936C4.51274 395.979 4.4891 396.022 4.46177 396.064C4.31658 396.284 3.73079 397 2.25 397C1.21262 397 0.614485 396.649 0.299373 396.362C0.0695276 396.154 0 395.838 0 395.528V363.826C0 363.637 0.0190203 363.475 0.0721711 363.294C1.0531 359.947 11.8006 323.542 18 314.104C23.8269 305.232 48.1372 288.878 53.1094 285.586C53.6734 285.213 54 284.592 54 283.916V231.5C54 231.5 54 224 63 224C72 224 72 231.5 72 231.5V268.128C72 269.752 73.8332 270.699 75.1575 269.759L94.1575 256.275C94.686 255.9 95 255.292 95 254.644V193C95 193 95 185.5 104 185.5C113 185.5 113 193 113 193V236.59C113 238.257 114.92 239.192 116.233 238.164L156.305 206.784C156.748 206.437 157.018 206.004 157.06 205.444C157.87 194.765 166.593 80.1458 168.5 72.9077C170.5 65.3159 196.5 12 203 5.99268Z" fill="#D45AFF" />
    <path d="M208 1.5C208 1.5 212.5 -1 217 -1C221.5 -1 226 1.5 226 1.5L217 16L208 1.5Z" fill="black" fill-opacity="0.3" />
    <path d="M196.015 66.3677C195.708 65.5532 195.964 64.6336 196.646 64.0937L215.76 48.981C216.487 48.4061 217.513 48.4061 218.24 48.981L237.354 64.0937C238.036 64.6336 238.292 65.5532 237.985 66.3677L225.988 98.2054C225.694 98.9844 224.949 99.5001 224.116 99.5001H209.884C209.051 99.5001 208.306 98.9844 208.012 98.2054L196.015 66.3677Z" fill="white" />
    <path d="M190.5 76.1124C190.5 75.0146 192.013 74.7187 192.426 75.7356L202.217 99.8051C202.385 100.217 202.26 100.69 201.912 100.966L192.121 108.717C191.465 109.236 190.5 108.769 190.5 107.933V76.1124Z" fill="white" />
    <path d="M243.5 76.1124C243.5 75.0146 241.987 74.7187 241.574 75.7356L231.783 99.8051C231.615 100.217 231.74 100.69 232.088 100.966L241.879 108.717C242.535 109.236 243.5 108.769 243.5 107.933V76.1124Z" fill="white" />
    <path d="M-0.5 305L16 304L20 369.5L16 396L-0.5 397V305Z" fill="black" fill-opacity="0.2" />
    <path d="M434 305L417.902 304L414 369.5L417.902 396L434 397V305Z" fill="black" fill-opacity="0.2" />
    <rect x="188" y="342" width="58" height="13" fill="black" fill-opacity="0.2" />
    <path fill-rule="evenodd" clip-rule="evenodd" d="M217 149C200.984 149 188 162.051 188 178.151V342H246V178.151C246 162.051 233.016 149 217 149ZM217 230.422C210.925 230.422 206 235.372 206 241.479V310.839H228V241.479C228 235.372 223.075 230.422 217 230.422Z" fill="black" fill-opacity="0.3" />
    <path d="M206 241C206 234.925 210.925 230 217 230V230C223.075 230 228 234.925 228 241V311H206V241Z" fill="black" fill-opacity="0.4" />
    <path d="M188 288.5V372H169V339.267L188 288.5Z" fill="black" fill-opacity="0.25" />
    <path d="M246 288.5V372H265V339.071L246 288.5Z" fill="black" fill-opacity="0.25" />
    <path d="M162.962 217L187.962 271L187.961 288.501L154.961 217L151.461 209.5L156.462 204L162.962 217Z" fill="white" fill-opacity="0.3" />
    <path d="M278 202L245.994 271L245.993 288.5L284.712 205.135L278 202Z" fill="white" fill-opacity="0.3" />
    <path d="M175.711 137.31C175.898 136.141 176.493 135.077 177.39 134.305L206.594 109.208C207.501 108.429 208.658 108 209.853 108H224.147C225.342 108 226.499 108.429 227.406 109.208L256.61 134.305C257.507 135.077 258.102 136.141 258.289 137.31L271 217L246 271V178C246 178 246 151 217 149C188 151 188 178 188 178V271L163 217L175.711 137.31Z" fill="#C4C4C4" fill-opacity="0.5" />
    <path d="M321 192C321 192 321 184.5 330 184.5C339 184.5 339 192 339 192V254C339 254.374 339.168 254.728 339.457 254.965L339.5 255L317.5 237L318.01 237.417C319.205 238.395 321 237.545 321 236V192Z" fill="black" fill-opacity="0.4" />
    <path d="M113 192C113 192 113 184.5 104 184.5C95 184.5 95 192 95 192V254C95 254.374 94.8321 254.728 94.5427 254.965L94.5 255L116.5 237L115.99 237.417C114.795 238.395 113 237.545 113 236V192Z" fill="black" fill-opacity="0.4" />
    <path d="M362 230.5C362 230.5 362 223 371 223C380 223 380 230.5 380 230.5V285.5C380 285.874 380.168 286.228 380.457 286.465L380.5 286.5L358.5 268.5L359.01 268.917C360.205 269.895 362 269.045 362 267.5V230.5Z" fill="black" fill-opacity="0.4" />
    <path d="M72 230.5C72 230.5 72 223 63 223C54 223 54 230.5 54 230.5V285.5C54 285.874 53.8321 286.228 53.5427 286.465L53.5 286.5L75.5 268.5L74.9903 268.917C73.7948 269.895 72 269.045 72 267.5V230.5Z" fill="black" fill-opacity="0.4" />
    <rect x="321" y="204" width="18" height="4" fill="white" />
    <rect width="18" height="4" transform="matrix(-1 0 0 1 113 204)" fill="white" />
    <rect x="362" y="241" width="18" height="4" fill="white" />
    <rect width="18" height="4" transform="matrix(-1 0 0 1 72 241)" fill="white" />
    <rect x="321" y="221" width="18" height="4" fill="white" />
    <rect width="18" height="4" transform="matrix(-1 0 0 1 113 221)" fill="white" />
    <rect x="362" y="258" width="18" height="4" fill="white" />
    <rect width="18" height="4" transform="matrix(-1 0 0 1 72 258)" fill="white" />
  </g>
</svg>
