<svg width="226" height="263" viewBox="0 0 226 263" fill="none" xmlns="http://www.w3.org/2000/svg">
<mask id="mask0" style="mask-type:alpha" maskUnits="userSpaceOnUse" x="0" y="0" width="226" height="263">
<path d="M112.916 0.57019C103.039 0.57028 104.275 55.1926 104.275 55.1926H102.051C101.533 55.1926 101.071 55.5155 100.892 56.0013L96.0555 69.1684C95.8223 69.8032 95.1217 70.1322 94.4843 69.9062L28.5643 46.5345C28.0716 46.3599 27.7424 45.8938 27.7424 45.3711V43.4661C27.7424 43.459 27.7364 40.0711 23.7288 40.0711C19.7169 40.0711 19.7169 43.4657 19.7169 43.4657V86.9785C19.7169 87.6603 20.2696 88.2129 20.9514 88.2129H21.5704V125.245H25.8908V88.2129H26.508C27.1897 88.2129 27.7424 87.6603 27.7424 86.9785V83.238C27.7424 82.1743 28.9979 81.6086 29.7946 82.3134L75.8842 123.085L8.69947 181.64C8.63937 181.693 8.57433 181.739 8.50528 181.779L1.203 185.992C0.82088 186.212 0.585449 186.62 0.585449 187.061V223.997C0.585449 224.679 1.13811 225.232 1.81985 225.232H2.43708V262.264H6.7575V225.232H7.37468C8.05642 225.232 8.60908 224.679 8.60908 223.997V219.137C8.60908 218.553 9.01876 218.048 9.59069 217.929L95.6347 199.927L96.2519 200.544L90.697 205.481L74.8203 217.763C74.5181 217.997 74.3412 218.358 74.3412 218.74V223.674C74.3412 224.47 75.0828 225.058 75.8575 224.876L98.1957 219.636C98.8357 219.486 99.481 219.864 99.6635 220.496L103.092 232.364C103.245 232.892 103.728 233.256 104.278 233.256H121.555C122.104 233.256 122.588 232.892 122.741 232.364L126.169 220.496C126.352 219.864 126.997 219.486 127.637 219.636L149.975 224.876C150.75 225.058 151.491 224.47 151.491 223.674V218.74C151.491 218.358 151.315 217.997 151.012 217.763L135.136 205.481L129.581 200.544L130.198 199.927L216.242 217.929C216.814 218.048 217.224 218.553 217.224 219.137V223.997C217.224 224.679 217.776 225.232 218.458 225.232H219.075V262.264H223.396V225.232H224.013C224.695 225.232 225.247 224.679 225.247 223.997V187.061C225.247 186.62 225.012 186.212 224.63 185.992L217.327 181.779C217.258 181.739 217.193 181.693 217.133 181.64L149.948 123.085L196.038 82.3134C196.835 81.6086 198.09 82.1743 198.09 83.238V86.9785C198.09 87.6603 198.643 88.2129 199.325 88.2129H199.942V125.245H204.262V88.2129H204.881C205.563 88.2129 206.116 87.6603 206.116 86.9785V43.4657C206.116 43.4657 206.116 40.0711 202.104 40.0711C198.096 40.0711 198.09 43.459 198.09 43.4661V45.3711C198.09 45.8938 197.761 46.3599 197.268 46.5345L131.348 69.9062C130.711 70.1322 130.01 69.8032 129.777 69.1684L124.94 56.0013C124.762 55.5155 124.299 55.1926 123.782 55.1926H121.557C121.557 55.1926 122.793 0.57028 112.916 0.57019Z" fill="#C4C4C4"/>
</mask>
<g mask="url(#mask0)">
<path d="M112.916 0.57019C122.793 0.57028 121.557 55.1926 121.557 55.1926H123.782C124.299 55.1926 124.762 55.5155 124.94 56.0013L129.777 69.1684C130.01 69.8032 130.711 70.1322 131.348 69.9062L197.268 46.5345C197.761 46.3599 198.09 45.8938 198.09 45.3711V43.4661C198.09 43.4663 198.09 43.4658 198.09 43.4661C198.09 43.459 198.096 40.0711 202.104 40.0711C206.116 40.0711 206.116 43.4657 206.116 43.4657C206.116 43.4657 206.116 43.4657 206.116 43.4657V86.9785C206.116 87.6603 205.563 88.2129 204.881 88.2129H199.325C198.643 88.2129 198.09 87.6603 198.09 86.9785V83.238C198.09 82.1743 196.835 81.6086 196.038 82.3134L149.949 123.085L217.133 181.64C217.193 181.693 217.258 181.739 217.327 181.779L224.63 185.992C225.012 186.212 225.247 186.62 225.247 187.061V223.997C225.247 224.679 224.695 225.232 224.013 225.232H218.458C217.776 225.232 217.224 224.679 217.224 223.997V219.137C217.224 218.553 216.814 218.048 216.242 217.929L130.198 199.927L129.581 200.544L135.136 205.481L151.012 217.763C151.315 217.997 151.492 218.358 151.492 218.74V223.674C151.492 224.47 150.75 225.058 149.975 224.876L127.637 219.636C126.997 219.486 126.352 219.864 126.169 220.496L122.741 232.364C122.588 232.892 122.105 233.256 121.555 233.256H112.916V0.57019Z" fill="#FF371C"/>
<path d="M112.916 0.57019C103.039 0.57028 104.275 55.1926 104.275 55.1926H102.051C101.533 55.1926 101.071 55.5155 100.892 56.0013L96.0555 69.1684C95.8223 69.8032 95.1217 70.1322 94.4843 69.9062L28.5643 46.5345C28.0716 46.3599 27.7424 45.8938 27.7424 45.3711V43.4661C27.7424 43.4663 27.7424 43.4658 27.7424 43.4661C27.7423 43.459 27.7364 40.0711 23.7288 40.0711C19.7169 40.0711 19.7169 43.4657 19.7169 43.4657C19.7169 43.4657 19.7169 43.4657 19.7169 43.4657V86.9785C19.7169 87.6603 20.2696 88.2129 20.9514 88.2129H26.508C27.1897 88.2129 27.7424 87.6603 27.7424 86.9785V83.238C27.7424 82.1743 28.9979 81.6086 29.7946 82.3134L75.8842 123.085L8.69947 181.64C8.63937 181.693 8.57434 181.739 8.50528 181.779L1.203 185.992C0.820876 186.212 0.585449 186.62 0.585449 187.061V223.997C0.585449 224.679 1.13811 225.232 1.81985 225.232H7.37468C8.05642 225.232 8.60908 224.679 8.60908 223.997V219.137C8.60908 218.553 9.01877 218.048 9.5907 217.929L95.6347 199.927L96.2519 200.544L90.697 205.481L74.8203 217.763C74.5181 217.997 74.3412 218.358 74.3412 218.74V223.674C74.3412 224.47 75.0828 225.058 75.8575 224.876L98.1957 219.636C98.8357 219.486 99.481 219.864 99.6635 220.496L103.092 232.364C103.245 232.892 103.728 233.256 104.278 233.256H112.916V0.57019Z" fill="#FF371C"/>
<path d="M199.942 88.2131H204.262V125.245H199.942V88.2131Z" fill="#DF5B5B"/>
<path d="M219.075 225.232H223.396V262.264H219.075V225.232Z" fill="#DF5B5B"/>
<path d="M122.174 194.989L129.581 200.544L135.136 205.482L151.8 218.134V225.849L127.112 219.677H122.174V194.989Z" fill="black" fill-opacity="0.2"/>
<path d="M217.224 181.411H225.247V225.232H217.224V181.411Z" fill="black" fill-opacity="0.3"/>
<path d="M198.091 40.0711H206.114V88.2129H198.091V40.0711Z" fill="black" fill-opacity="0.3"/>
<path d="M149.949 182.645L217.224 215.974V218.443L130.198 199.927L149.949 182.645Z" fill="white" fill-opacity="0.5"/>
<path d="M143.16 104.877L198.091 79.572V83.2752L149.949 123.085L143.16 104.877Z" fill="white" fill-opacity="0.5"/>
<path d="M25.8907 88.213H21.5703L21.5703 125.245H25.8907L25.8907 88.213Z" fill="#DF5B5B"/>
<path d="M6.75743 225.232H2.43701L2.43701 262.264H6.75743L6.75743 225.232Z" fill="#DF5B5B"/>
<path d="M112.916 55.1926H124.643L149.949 123.085V182.645L129.581 200.544L122.174 194.989L129.581 187.891V145.613L112.916 128.64V55.1926Z" fill="#C4C4C4" fill-opacity="0.5"/>
<path d="M112.916 55.1926L101.19 55.1926L75.8843 123.085L75.8843 182.645L96.252 200.544L103.658 194.989L96.252 187.891V145.613L112.916 128.64V55.1926Z" fill="#C4C4C4" fill-opacity="0.5"/>
<path d="M112.916 219.677H127.112V228.935H112.916V219.677Z" fill="white" fill-opacity="0.3"/>
<path d="M112.916 219.677H98.7207V228.935H112.916V219.677Z" fill="white" fill-opacity="0.3"/>
<path d="M112.917 194.989H122.175V219.677H112.917V194.989Z" fill="white" fill-opacity="0.5"/>
<path d="M112.917 194.989H103.659V219.677H112.917V194.989Z" fill="white" fill-opacity="0.5"/>
<path d="M103.659 194.989L96.2525 200.544L90.6977 205.481L74.0332 218.134V225.849L98.7213 219.677H103.659V194.989Z" fill="black" fill-opacity="0.2"/>
<path d="M8.60908 181.41H0.585449L0.585449 225.232H8.60908L8.60908 181.41Z" fill="black" fill-opacity="0.3"/>
<path d="M27.7429 40.071H19.7192L19.7192 88.2128H27.7429L27.7429 40.071Z" fill="black" fill-opacity="0.3"/>
<path d="M112.916 18.4692L122.791 18.4692V24.6413H112.916V18.4692Z" fill="white" fill-opacity="0.4"/>
<path d="M112.916 18.4692H103.041V24.6413H112.916V18.4692Z" fill="white" fill-opacity="0.4"/>
<path d="M112.916 142.835L122.174 151.785V181.719L117.237 186.348H112.916V142.835Z" fill="black" fill-opacity="0.3"/>
<path d="M112.916 142.835L103.658 151.785V181.719L108.596 186.348H112.916V142.835Z" fill="black" fill-opacity="0.3"/>
<path d="M75.8843 182.645L8.60922 215.974V218.443L95.6348 199.927L75.8843 182.645Z" fill="white" fill-opacity="0.5"/>
<path d="M82.6733 104.878L27.7423 79.5722V83.2754L75.8841 123.085L82.6733 104.878Z" fill="white" fill-opacity="0.5"/>
<path d="M112.916 76.4863C114.346 76.4863 119.085 81.3387 121.172 83.5521C121.813 84.2308 122.091 85.1656 121.948 86.0875L117.092 117.411C116.999 118.012 116.481 118.456 115.872 118.456H112.916V76.4863Z" fill="white"/>
<path d="M123.434 91.3466C123.621 90.1657 125.21 89.9139 125.753 90.9791L131.785 102.812C131.954 103.143 131.965 103.531 131.815 103.871L124.577 120.297C124.283 120.964 123.477 121.233 122.842 120.875L119.839 119.186C119.389 118.933 119.144 118.426 119.225 117.917L123.434 91.3466Z" fill="white"/>
<path d="M126.34 123.996C126.057 123.626 126.007 123.13 126.208 122.711L132.73 109.166C133.014 108.575 133.903 108.778 133.903 109.434V132.063C133.903 132.653 133.154 132.907 132.796 132.438L126.34 123.996Z" fill="white"/>
<path d="M112.916 76.4863C111.487 76.4863 106.748 81.3387 104.66 83.5521C104.02 84.2308 103.741 85.1656 103.884 86.0875L108.741 117.411C108.834 118.012 109.352 118.456 109.961 118.456H112.916V76.4863Z" fill="white"/>
<path d="M102.399 91.3466C102.212 90.1657 100.623 89.9139 100.08 90.9791L94.0475 102.812C93.879 103.143 93.8681 103.531 94.0176 103.871L101.256 120.297C101.55 120.964 102.355 121.233 102.991 120.875L105.994 119.186C106.444 118.933 106.689 118.426 106.608 117.917L102.399 91.3466Z" fill="white"/>
<path d="M99.4928 123.996C99.7753 123.626 99.8262 123.13 99.6244 122.711L93.103 109.166C92.8183 108.575 91.9297 108.778 91.9297 109.434V132.063C91.9297 132.653 92.6786 132.907 93.0372 132.438L99.4928 123.996Z" fill="white"/>
</g>
</svg>
