<svg width="429" height="466" viewBox="0 0 429 466" fill="none" xmlns="http://www.w3.org/2000/svg">
  <path d="M122 149.943L201.512 7.6818C207.214 -2.52028 221.876 -2.57071 227.648 7.59189L308.5 149.943L428.5 368.443L394.289 431.913C392.073 436.024 387.306 438.054 382.806 436.802L324 420.443L288.5 445.443H251L215.5 428.943L180 445.443H142.5L107 420.443L48.024 436.85C43.6024 438.08 38.9111 436.142 36.6462 432.15L0.500113 368.443L122 149.943Z" fill="currentColor" />
  <path d="M142.5 445.443H180L180 459.693C180 470.048 171.605 462.943 161.25 462.943C150.895 462.943 142.5 470.048 142.5 459.693L142.5 445.443Z" fill="currentColor" />
  <path d="M251 445.443H288.5L288.5 459.693C288.5 470.048 280.105 462.943 269.75 462.943C259.395 462.943 251 470.048 251 459.693L251 445.443Z" fill="currentColor" />
  <path d="M0.500113 368.443L34.5 307.299V258.443C34.5 249.054 26.3888 241.443 17 241.443C7.61116 241.443 0.5 249.054 0.5 258.443L0.500113 368.443Z" fill="currentColor" />
  <path d="M428.5 368.443L428.5 258.443C428.5 249.054 420.889 241.443 411.5 241.443C402.111 241.443 394.5 249.054 394.5 258.443V306.534L428.5 368.443Z" fill="currentColor" />
  <path d="M307.893 148.874L260 232.443L259.5 387.943L294.965 440.89L317.311 425.153L293 387.943V243.443L328.359 186.103L308.5 149.943L307.893 148.874Z" fill="white" fill-opacity="0.8" />
  <path d="M133.769 439.294L168.5 387.443L168 231.943L121.51 150.823L100.971 187.761L135 242.943V387.443L111.411 423.549L133.769 439.294Z" fill="white" fill-opacity="0.8" />
  <path d="M165.155 130.444C163.094 133.057 161.813 136.199 161.461 139.508L161.394 140.14C160.363 149.826 167.649 158.404 177.375 158.955L178.405 159.013C183.179 159.283 187.796 157.262 190.836 153.571C202.839 138.995 225.229 139.078 237.232 153.654C240.227 157.29 244.765 159.332 249.471 159.144L250.286 159.111C259.512 158.742 266.688 150.956 266.304 141.73L266.253 140.519C266.089 136.579 264.629 132.803 262.1 129.777L259.3 126.428C235.171 97.5638 190.603 98.193 167.299 127.727L165.155 130.444Z" fill="white" fill-opacity="0.8" />
</svg>
